<svg width="217" height="66" viewBox="0 0 217 66" fill="none" xmlns="http://www.w3.org/2000/svg">
<rect x="24.25" y="21.2256" width="7.5" height="7.5" fill="#22C55E" stroke="black" stroke-width="0.5"/>
<rect x="24.25" y="37.2256" width="7.5" height="7.5" fill="#EF4444" stroke="black" stroke-width="0.5"/>
<path d="M176.432 25.2949V28.4149L169.184 37.8229V38.8789H176.432V40.6549H167.312V37.5349L174.585 28.0789V27.0709H167.312V25.2949H176.432Z" fill="white"/>
<path d="M163.898 25.2949V27.8149L160.106 34.6069V40.6549H158.186V34.5829L154.418 27.8149V25.2949H156.338V27.3589L159.146 32.6869L161.978 27.3589V25.2949H163.898Z" fill="white"/>
<path d="M151.053 25.2949V26.2789L147.549 32.9029L151.053 39.5509V40.6549H149.493L146.445 34.5829L143.372 40.6549H141.812V39.5509L145.316 32.9029L141.812 26.2789V25.2949H143.421L146.445 31.2469L149.445 25.2949H151.053Z" fill="white"/>
<path d="M134.987 38.0635V40.6555H132.395V38.0635H134.987Z" fill="white"/>
<path d="M125.166 27.0709H118.686V32.0869H123.966V33.8629H118.686V38.8789H125.166V40.6549H116.766V25.2949H125.166V27.0709Z" fill="white"/>
<path d="M112.873 29.8077H110.953V29.3277C110.953 27.6477 110.017 26.8317 108.241 26.8317C106.465 26.8317 105.553 27.6477 105.553 29.3277V36.6237C105.553 38.3037 106.465 39.1197 108.241 39.1197C110.017 39.1197 110.953 38.3037 110.953 36.6237V34.7997H108.481V33.0237H112.873V36.5037C112.873 39.2637 111.385 40.8957 108.241 40.8957C105.097 40.8957 103.633 39.2637 103.633 36.5037V29.4237C103.633 26.6877 105.097 25.0557 108.241 25.0557C111.385 25.0557 112.873 26.6877 112.873 29.4237V29.8077Z" fill="white"/>
<path d="M99.7125 27.0709H93.2325V32.0869H98.5125V33.8629H93.2325V38.8789H99.7125V40.6549H91.3125V25.2949H99.7125V27.0709Z" fill="white"/>
<path d="M80.5059 38.8789H86.9859V40.6549H78.5859V25.2949H80.5059V38.8789Z" fill="white"/>
<path d="M67.7794 38.8789H74.2594V40.6549H65.8594V25.2949H67.7794V38.8789Z" fill="white"/>
<path d="M57.3346 25.0557C60.4786 25.0557 61.9666 26.6877 61.9666 29.4237V36.5037C61.9666 39.2637 60.4786 40.8957 57.3346 40.8957C54.1906 40.8957 52.7266 39.2637 52.7266 36.5037V29.4237C52.7266 26.6877 54.1906 25.0557 57.3346 25.0557ZM57.3346 26.8317C55.5586 26.8317 54.6466 27.6477 54.6466 29.3277V36.6237C54.6466 38.3037 55.5586 39.1197 57.3346 39.1197C59.1106 39.1197 60.0466 38.3037 60.0466 36.6237V29.3277C60.0466 27.6477 59.1106 26.8317 57.3346 26.8317Z" fill="white"/>
<path d="M44.608 25.0557C47.752 25.0557 49.24 26.6877 49.24 29.4237V30.0477H47.32V29.3277C47.32 27.6477 46.384 26.8317 44.608 26.8317C42.832 26.8317 41.92 27.6477 41.92 29.3277V36.6237C41.92 38.3037 42.832 39.1197 44.608 39.1197C46.384 39.1197 47.32 38.3037 47.32 36.6237V35.8797H49.24V36.5037C49.24 39.2637 47.752 40.8957 44.608 40.8957C41.464 40.8957 40 39.2637 40 36.5037V29.4237C40 26.6877 41.464 25.0557 44.608 25.0557Z" fill="white"/>
<rect x="184.684" y="21.2256" width="7.5" height="7.5" fill="#3B82F6" stroke="black" stroke-width="0.5"/>
<rect x="184.684" y="37.2256" width="7.5" height="7.5" fill="#A855F7" stroke="black" stroke-width="0.5"/>
</svg>
