<svg width="209" height="66" viewBox="0 0 209 66" fill="none" xmlns="http://www.w3.org/2000/svg">
<g clip-path="url(#clip0_10313_23550)">
<path d="M43.2491 36.5692V39.3908H28.7649C28.1222 39.3908 27.5187 39.2732 26.9544 39.0381C26.3901 38.7873 25.8963 38.4581 25.4731 38.0506C25.0655 37.6273 24.7363 37.1336 24.4855 36.5692C24.2504 36.0049 24.1328 35.4014 24.1328 34.7587V31.1377C24.1328 30.495 24.2504 29.8915 24.4855 29.3271C24.7363 28.7628 25.0655 28.2691 25.4731 27.8458C25.8963 27.4226 26.3901 27.0934 26.9544 26.8583C27.5187 26.6074 28.1222 26.482 28.7649 26.482L43.2491 26.5056V29.3271H28.7649C28.2633 29.3271 27.8322 29.5074 27.4717 29.868C27.1268 30.2128 26.9544 30.636 26.9544 31.1377V34.7587C26.9544 35.2603 27.1268 35.6914 27.4717 36.052C27.8322 36.3968 28.2633 36.5692 28.7649 36.5692H43.2491ZM55.2832 33.7711C54.9227 33.7711 54.6014 33.7241 54.3192 33.6301C54.0527 33.536 53.7862 33.3558 53.5197 33.0893L46.889 26.4585H50.8392L55.3538 30.9731H58.0343L62.5724 26.4585H66.5225L59.8683 33.0893C59.6175 33.3558 59.351 33.536 59.0689 33.6301C58.7867 33.7241 58.4654 33.7711 58.1048 33.7711V39.3908H55.2832V33.7711ZM76.1916 32.9482H84.7035C85.2051 32.9482 85.6281 32.7758 85.9733 32.4309C86.3338 32.0704 86.5138 31.6393 86.5138 31.1377C86.5138 30.636 86.3338 30.2128 85.9733 29.868C85.6281 29.5074 85.2051 29.3271 84.7035 29.3271H73.0407V39.3908H70.2193V26.5056L84.7035 26.482C85.3462 26.482 85.9497 26.6074 86.5138 26.8583C87.0783 27.0934 87.5642 27.4226 87.9719 27.8458C88.3949 28.2691 88.7243 28.7628 88.9594 29.3271C89.2102 29.8915 89.3356 30.495 89.3356 31.1377C89.3356 31.7804 89.2102 32.3839 88.9594 32.9482C88.7243 33.5125 88.3949 34.0063 87.9719 34.4295C87.5642 34.8371 87.0783 35.1663 86.5138 35.4171C85.9497 35.6522 85.3462 35.7698 84.7035 35.7698H83.0575L89.1945 39.3908H83.716L75.7214 34.6647C75.5174 34.5549 75.3845 34.406 75.3216 34.2179C75.2591 34.0141 75.2512 33.8182 75.298 33.6301C75.3452 33.442 75.447 33.2852 75.6039 33.1598C75.7607 33.0188 75.9565 32.9482 76.1916 32.9482ZM111.747 36.5692V39.3908H97.2631C96.6204 39.3908 96.0169 39.2732 95.4524 39.0381C94.8883 38.7873 94.3945 38.4581 93.9711 38.0506C93.5639 37.6273 93.2344 37.1336 92.9836 36.5692C92.7485 36.0049 92.631 35.4014 92.631 34.7587V31.1377C92.631 30.495 92.7485 29.8915 92.9836 29.3271C93.2344 28.7628 93.5639 28.2691 93.9711 27.8458C94.3945 27.4226 94.8883 27.0934 95.4524 26.8583C96.0169 26.6074 96.6204 26.482 97.2631 26.482L111.747 26.5056V29.3271H97.2631C96.7615 29.3271 96.3302 29.5074 95.9697 29.868C95.625 30.2128 95.4524 30.636 95.4524 31.1377V31.5139H110.877V34.359H95.4524V34.7587C95.4524 35.2603 95.625 35.6914 95.9697 36.052C96.3302 36.3968 96.7615 36.5692 97.2631 36.5692H111.747ZM132.671 26.5056V37.8154C132.671 38.2073 132.569 38.5522 132.365 38.85C132.162 39.1322 131.903 39.3438 131.59 39.4849C131.292 39.6416 130.963 39.7043 130.602 39.673C130.241 39.6573 129.912 39.5241 129.614 39.2732L118.117 29.9855V39.3908H115.318V28.0809C115.318 27.6891 115.42 27.3442 115.624 27.0464C115.828 26.7485 116.079 26.5291 116.376 26.388C116.69 26.2469 117.019 26.192 117.364 26.2234C117.725 26.2391 118.054 26.3723 118.352 26.6231L129.873 35.8874V26.5056H132.671ZM155.951 36.5692V39.3908H141.467C140.824 39.3908 140.22 39.2732 139.656 39.0381C139.092 38.7873 138.598 38.4581 138.175 38.0506C137.767 37.6273 137.438 37.1336 137.187 36.5692C136.952 36.0049 136.834 35.4014 136.834 34.7587V31.1377C136.834 30.495 136.952 29.8915 137.187 29.3271C137.438 28.7628 137.767 28.2691 138.175 27.8458C138.598 27.4226 139.092 27.0934 139.656 26.8583C140.22 26.6074 140.824 26.482 141.467 26.482L155.951 26.5056V29.3271H141.467C140.965 29.3271 140.534 29.5074 140.174 29.868C139.828 30.2128 139.656 30.636 139.656 31.1377V31.5139H155.081V34.359H139.656V34.7587C139.656 35.2603 139.828 35.6914 140.174 36.052C140.534 36.3968 140.965 36.5692 141.467 36.5692H155.951Z" fill="white"/>
<path d="M164.152 26.4355H173.134C173.777 26.4355 174.38 26.561 174.944 26.8118C175.509 27.0469 175.995 27.3761 176.402 27.7993C176.826 28.2226 177.155 28.7163 177.39 29.2807C177.641 29.845 177.766 30.4485 177.766 31.0912V39.3914H174.944V36.2876H162.341V39.3914H159.52V31.0912C159.52 30.4485 159.637 29.845 159.872 29.2807C160.123 28.7163 160.452 28.2226 160.86 27.7993C161.283 27.3761 161.777 27.0469 162.341 26.8118C162.905 26.561 163.509 26.4355 164.152 26.4355ZM162.341 33.4425H174.944V31.0912C174.944 30.5895 174.764 30.1663 174.404 29.8215C174.059 29.4609 173.635 29.2807 173.134 29.2807H164.152C163.65 29.2807 163.219 29.4609 162.858 29.8215C162.514 30.1663 162.341 30.5895 162.341 31.0912V33.4425ZM184.661 39.3914H181.839V26.5061H184.661V39.3914Z" fill="#4D84EE"/>
</g>
<defs>
<clipPath id="clip0_10313_23550">
<rect width="161" height="13.6581" fill="white" transform="translate(24 26.1465)"/>
</clipPath>
</defs>
</svg>
