<svg width="89" height="13" viewBox="0 0 89 13" fill="none" xmlns="http://www.w3.org/2000/svg">
<path d="M7.66693 12.4257H11.1214V0H7.66693V4.67065H3.45448V0H0V12.4257H3.45448V7.43775H7.66693V12.4257ZM23.2151 2.53807H19.7429V7.84323C19.7429 8.98882 19.1084 9.65863 18.1038 9.65863C17.1168 9.65863 16.4647 8.98882 16.4647 7.84323V2.53807H13.0278V8.28386C13.0278 10.8924 14.4554 12.5139 16.7466 12.5139C18.1391 12.5139 19.179 11.8617 19.7429 11.0157V12.4257H23.2151V2.53807ZM38.6466 12.4257H42.1013V6.66235C42.1013 4.07142 40.6031 2.44991 38.1003 2.44991C36.6375 2.44991 35.4742 3.26074 34.8044 4.26531C34.152 3.11972 32.9891 2.44991 31.5086 2.44991C30.169 2.44991 29.1997 3.04914 28.6357 3.84225V2.53807H25.181V12.4257H28.6357V7.12056C28.6357 6.04541 29.2702 5.44619 30.2925 5.44619C31.2795 5.44619 31.914 6.04541 31.914 7.12056V12.4257H35.3685V7.12056C35.3685 6.04541 36.003 5.44619 37.0075 5.44619C37.9945 5.44619 38.6466 6.04541 38.6466 7.12056V12.4257ZM43.4297 7.47304C43.4297 10.6279 45.2979 12.549 47.642 12.549C49.0345 12.549 50.039 11.9322 50.5501 11.051V12.4257H54.0047V2.53807H50.5501V3.91283C50.039 3.03156 49.052 2.41462 47.642 2.41462C45.2979 2.41462 43.4297 4.31817 43.4297 7.47304ZM50.5501 7.47304C50.5501 8.81251 49.7219 9.53518 48.7524 9.53518C47.7654 9.53518 46.9546 8.79494 46.9546 7.47304C46.9546 6.13357 47.7654 5.42861 48.7524 5.42861C49.7219 5.42861 50.5501 6.15114 50.5501 7.47304ZM55.4092 7.47304C55.4092 10.6279 57.2775 12.549 59.6215 12.549C61.014 12.549 62.0186 11.9322 62.5296 11.051V12.4257H65.9841V2.53807H62.5296V3.91283C62.0186 3.03156 61.0316 2.41462 59.6215 2.41462C57.2775 2.41462 55.4092 4.31817 55.4092 7.47304ZM62.5296 7.47304C62.5296 8.81251 61.7012 9.53518 60.7319 9.53518C59.7449 9.53518 58.9341 8.79494 58.9341 7.47304C58.9341 6.13357 59.7449 5.42861 60.7319 5.42861C61.7012 5.42861 62.5296 6.15114 62.5296 7.47304ZM74.6854 12.4257H78.1399V6.66235C78.1399 4.07142 76.7123 2.44991 74.421 2.44991C73.0286 2.44991 71.9888 3.102 71.4071 3.94812V2.53807H67.9526V12.4257H71.4071V7.12056C71.4071 5.97497 72.0416 5.30517 73.0639 5.30517C74.0509 5.30517 74.6854 5.97497 74.6854 7.12056V12.4257ZM88.3544 9.51761C88.3367 5.76337 83.0669 6.89139 83.0669 5.48147C83.0669 5.11128 83.3666 4.88225 83.9305 4.88225C84.6708 4.88225 85.1114 5.2523 85.2172 5.86924H88.3367C88.1077 3.91283 86.6976 2.41462 84.001 2.41462C81.322 2.41462 79.8944 3.84225 79.8944 5.56963C79.8944 9.20028 85.1467 8.0194 85.1467 9.46474C85.1467 9.81722 84.8118 10.0991 84.2302 10.0991C83.5075 10.0991 82.9611 9.74664 82.873 9.09455H79.5244C79.6652 11.0685 81.4984 12.549 84.2477 12.549C86.8034 12.549 88.3544 11.2448 88.3544 9.51761Z" fill="#F3EAFF"/>
</svg>
