<svg width="237" height="66" viewBox="0 0 237 66" fill="none" xmlns="http://www.w3.org/2000/svg">
<path d="M24 28.2266C24 23.6995 27.8795 23.979 29.1727 23.979H34.2329V33.2008H30.3534C30.3534 33.2008 34.2329 34.3186 34.2329 37.5044C34.2329 41.9757 30.3724 41.9756 29.7946 41.9756H29.7912C28.8915 41.9756 24 41.9756 24 41.9756V32.7537H28.8915C28.8915 32.7537 24 32.3066 24 28.2266Z" fill="#F3EAFF"/>
<path d="M35.4648 23.9756C35.4648 23.9756 35.4648 35.6029 35.6339 36.8327C35.8802 38.6249 36.3793 39.7018 37.7751 40.8017C39.2671 41.9774 42.5648 41.9756 42.5648 41.9756L42.6212 33.311C42.6212 33.311 45.6077 33.4787 46.96 30.9073C47.7231 29.4563 47.5235 26.8265 47.5235 26.8265H42.5648L42.5648 23.9756H35.4648Z" fill="#F3EAFF"/>
<path d="M59.7017 39.6018C58.7898 39.6018 57.9566 39.5085 57.202 39.322C56.4474 39.1354 55.795 38.8726 55.2447 38.5334C54.7102 38.1773 54.2936 37.7448 53.9949 37.2361C53.6962 36.7273 53.5469 36.1423 53.5469 35.4809C53.5469 35.3961 53.5469 35.3198 53.5469 35.252C53.5626 35.1841 53.5705 35.1248 53.5705 35.0739H56.6596C56.6596 35.1078 56.6518 35.1502 56.6361 35.2011C56.6361 35.235 56.6361 35.2689 56.6361 35.3028C56.6518 35.7437 56.8011 36.0999 57.0841 36.3712C57.3828 36.6256 57.768 36.8121 58.2396 36.9308C58.727 37.0496 59.2379 37.1089 59.7724 37.1089C60.2755 37.1089 60.755 37.0665 61.2109 36.9817C61.6825 36.8969 62.0677 36.7528 62.3664 36.5493C62.6651 36.3288 62.8144 36.0236 62.8144 35.6335C62.8144 35.1926 62.6415 34.8704 62.2956 34.6669C61.9498 34.4464 61.4703 34.2684 60.8571 34.1327C60.244 33.997 59.5366 33.8529 58.7348 33.7002C58.0902 33.5646 57.4771 33.4035 56.8955 33.2169C56.3295 33.0304 55.8186 32.793 55.3627 32.5047C54.9225 32.1994 54.5687 31.8179 54.3015 31.36C54.0499 30.9021 53.9242 30.334 53.9242 29.6556C53.9242 28.9603 54.0657 28.3583 54.3486 27.8496C54.6316 27.3408 55.0325 26.9253 55.5513 26.6031C56.0858 26.2639 56.7147 26.018 57.4378 25.8654C58.1767 25.6958 58.9863 25.611 59.8667 25.611C60.6999 25.611 61.4545 25.6958 62.1306 25.8654C62.8223 26.018 63.4197 26.2555 63.9227 26.5777C64.4258 26.8999 64.8188 27.2899 65.1018 27.7478C65.3848 28.2057 65.5263 28.7229 65.5263 29.2995C65.5263 29.4013 65.5263 29.4945 65.5263 29.5793C65.5263 29.6641 65.5184 29.732 65.5027 29.7828H62.4371V29.6302C62.4371 29.291 62.3192 29.0112 62.0834 28.7908C61.8633 28.5533 61.5567 28.3753 61.1637 28.2566C60.7707 28.1379 60.3148 28.0785 59.796 28.0785C59.513 28.0785 59.2064 28.1039 58.8763 28.1548C58.5462 28.1887 58.2396 28.2566 57.9566 28.3583C57.6736 28.4601 57.4378 28.5873 57.2492 28.7399C57.0762 28.8925 56.9898 29.096 56.9898 29.3504C56.9898 29.6896 57.147 29.9524 57.4614 30.139C57.7758 30.3255 58.1924 30.4781 58.7112 30.5968C59.23 30.7156 59.796 30.8427 60.4091 30.9784C61.0851 31.1141 61.7532 31.2667 62.4135 31.4363C63.0738 31.6059 63.6634 31.8348 64.1821 32.1231C64.7009 32.3944 65.1175 32.776 65.432 33.2678C65.7464 33.7596 65.9036 34.4125 65.9036 35.2265C65.9036 36.0405 65.7542 36.7273 65.4555 37.287C65.1726 37.8466 64.756 38.296 64.2057 38.6352C63.6712 38.9743 63.0188 39.2202 62.2485 39.3729C61.4938 39.5255 60.6449 39.6018 59.7017 39.6018Z" fill="#F3EAFF"/>
<path d="M72.9902 39.6018C71.5282 39.6018 70.3884 39.2033 69.5709 38.4062C68.7534 37.6092 68.3447 36.3288 68.3447 34.5651V25.8909H71.4102V33.9801C71.4102 34.5058 71.4731 34.9467 71.5989 35.3028C71.7247 35.659 71.9055 35.9472 72.1413 36.1677C72.3771 36.3712 72.6601 36.5238 72.9902 36.6256C73.3361 36.7104 73.7134 36.7528 74.1221 36.7528C74.7195 36.7528 75.2698 36.6086 75.7728 36.3203C76.2916 36.032 76.7082 35.6335 77.0227 35.1248C77.3371 34.616 77.4943 34.0225 77.4943 33.3441V25.8909H80.5599V39.2966H78.0602L77.8244 37.2615H77.6358C77.2742 37.7872 76.8497 38.2282 76.3624 38.5843C75.875 38.9235 75.3405 39.1778 74.7588 39.3474C74.1929 39.517 73.6033 39.6018 72.9902 39.6018Z" fill="#F3EAFF"/>
<path d="M83.7762 43.8753V25.8909H86.2758L86.5352 27.8496H86.7239C87.2112 27.0525 87.8243 26.4759 88.5632 26.1198C89.3178 25.7637 90.1511 25.5856 91.0629 25.5856C92.2105 25.5856 93.2009 25.84 94.0341 26.3487C94.8831 26.8405 95.5355 27.6037 95.9914 28.6381C96.463 29.6726 96.6989 30.9954 96.6989 32.6064C96.6989 34.1836 96.463 35.4978 95.9914 36.5493C95.5355 37.5837 94.8988 38.3554 94.0813 38.8641C93.2638 39.3559 92.3206 39.6018 91.2515 39.6018C90.6384 39.6018 90.0646 39.5255 89.5301 39.3729C88.9956 39.2372 88.5161 39.0252 88.0916 38.7369C87.6671 38.4486 87.3055 38.0925 87.0069 37.6685H86.8418V43.8753H83.7762ZM90.2139 36.7782C90.9685 36.7782 91.5895 36.6341 92.0769 36.3458C92.58 36.0405 92.9494 35.5911 93.1852 34.9976C93.4367 34.404 93.5625 33.6663 93.5625 32.7845V32.4284C93.5625 31.5296 93.4367 30.7834 93.1852 30.1898C92.9494 29.5963 92.58 29.1554 92.0769 28.8671C91.5738 28.5618 90.945 28.4092 90.1904 28.4092C89.4672 28.4092 88.8541 28.5703 88.351 28.8925C87.8479 29.1978 87.4706 29.6556 87.2191 30.2662C86.9675 30.8597 86.8418 31.5889 86.8418 32.4538V32.7082C86.8418 33.3526 86.9125 33.9292 87.054 34.4379C87.1955 34.9467 87.4077 35.3791 87.6907 35.7353C87.9894 36.0744 88.3431 36.3373 88.7519 36.5238C89.1764 36.6934 89.6637 36.7782 90.2139 36.7782Z" fill="#F3EAFF"/>
<path d="M105.663 39.6018C104.201 39.6018 102.959 39.3559 101.937 38.8641C100.931 38.3554 100.161 37.5837 99.6261 36.5493C99.0916 35.5148 98.8243 34.2005 98.8243 32.6064C98.8243 31.0123 99.0837 29.698 99.6025 28.6636C100.137 27.6291 100.907 26.8575 101.914 26.3487C102.935 25.84 104.169 25.5856 105.616 25.5856C107.031 25.5856 108.218 25.84 109.177 26.3487C110.151 26.8405 110.882 27.5867 111.37 28.5873C111.857 29.5878 112.101 30.8427 112.101 32.352V33.4204H102.008C102.039 34.2514 102.196 34.9382 102.479 35.4809C102.778 36.0066 103.195 36.3966 103.729 36.651C104.28 36.8884 104.948 37.0072 105.734 37.0072C106.08 37.0072 106.441 36.9648 106.818 36.88C107.196 36.7782 107.542 36.6341 107.856 36.4475C108.17 36.261 108.43 36.0151 108.634 35.7098C108.854 35.4046 108.972 35.0484 108.988 34.6414H112.054C112.054 35.4046 111.904 36.0914 111.606 36.7019C111.307 37.3124 110.874 37.8381 110.309 38.279C109.758 38.703 109.09 39.0337 108.304 39.2711C107.518 39.4916 106.638 39.6018 105.663 39.6018ZM102.031 31.1565H108.894C108.894 30.6308 108.807 30.1814 108.634 29.8083C108.477 29.4352 108.249 29.1299 107.95 28.8925C107.652 28.6381 107.306 28.4601 106.913 28.3583C106.52 28.2396 106.095 28.1803 105.639 28.1803C104.932 28.1803 104.319 28.2905 103.8 28.5109C103.281 28.7314 102.872 29.0621 102.574 29.503C102.291 29.9439 102.11 30.4951 102.031 31.1565Z" fill="#F3EAFF"/>
<path d="M114.773 39.2966V25.8909H117.296L117.532 28.1294H117.697C117.87 27.6885 118.09 27.273 118.357 26.8829C118.64 26.4929 118.994 26.1792 119.419 25.9417C119.859 25.7043 120.362 25.5856 120.928 25.5856C121.195 25.5856 121.447 25.611 121.682 25.6619C121.934 25.7128 122.146 25.7721 122.319 25.84V28.8416H121.069C120.503 28.8416 120.016 28.9349 119.607 29.1215C119.214 29.308 118.884 29.5793 118.617 29.9355C118.35 30.2746 118.153 30.6732 118.027 31.131C117.901 31.5889 117.839 32.0977 117.839 32.6573V39.2966H114.773Z" fill="#F3EAFF"/>
<path d="M128.412 39.6018C127.563 39.6018 126.887 39.4492 126.384 39.1439C125.881 38.8387 125.52 38.3978 125.3 37.8212C125.079 37.2446 124.969 36.5493 124.969 35.7353V28.5364H123.036V25.8909H125.064L125.653 22.0752H128.035V25.8909H130.794V28.5364H128.035V35.4555C128.035 35.9472 128.129 36.3203 128.318 36.5747C128.522 36.8291 128.892 36.9563 129.426 36.9563H130.794V39.1694C130.605 39.2542 130.37 39.322 130.087 39.3729C129.804 39.4407 129.513 39.4916 129.214 39.5255C128.915 39.5764 128.648 39.6018 128.412 39.6018Z" fill="#F3EAFF"/>
<path d="M139.515 39.6018C138.053 39.6018 136.811 39.3559 135.789 38.8641C134.783 38.3554 134.013 37.5837 133.478 36.5493C132.944 35.5148 132.677 34.2005 132.677 32.6064C132.677 31.0123 132.936 29.698 133.455 28.6636C133.989 27.6291 134.76 26.8575 135.766 26.3487C136.788 25.84 138.022 25.5856 139.468 25.5856C140.883 25.5856 142.07 25.84 143.029 26.3487C144.004 26.8405 144.735 27.5867 145.222 28.5873C145.709 29.5878 145.953 30.8427 145.953 32.352V33.4204H135.86C135.892 34.2514 136.049 34.9382 136.332 35.4809C136.631 36.0066 137.047 36.3966 137.582 36.651C138.132 36.8884 138.8 37.0072 139.586 37.0072C139.932 37.0072 140.294 36.9648 140.671 36.88C141.048 36.7782 141.394 36.6341 141.708 36.4475C142.023 36.261 142.282 36.0151 142.487 35.7098C142.707 35.4046 142.825 35.0484 142.84 34.6414H145.906C145.906 35.4046 145.757 36.0914 145.458 36.7019C145.159 37.3124 144.727 37.8381 144.161 38.279C143.611 38.703 142.943 39.0337 142.156 39.2711C141.37 39.4916 140.49 39.6018 139.515 39.6018ZM135.884 31.1565H142.746C142.746 30.6308 142.66 30.1814 142.487 29.8083C142.329 29.4352 142.101 29.1299 141.803 28.8925C141.504 28.6381 141.158 28.4601 140.765 28.3583C140.372 28.2396 139.948 28.1803 139.492 28.1803C138.784 28.1803 138.171 28.2905 137.652 28.5109C137.134 28.7314 136.725 29.0621 136.426 29.503C136.143 29.9439 135.962 30.4951 135.884 31.1565Z" fill="#F3EAFF"/>
<path d="M152.563 39.6018C152.029 39.6018 151.487 39.5425 150.936 39.4237C150.402 39.322 149.907 39.1354 149.451 38.8641C149.011 38.5758 148.657 38.1858 148.39 37.694C148.122 37.1852 147.989 36.5323 147.989 35.7353C147.989 34.7347 148.217 33.9377 148.673 33.3441C149.144 32.7336 149.797 32.2757 150.63 31.9705C151.479 31.6483 152.477 31.4363 153.625 31.3345C154.772 31.2328 156.022 31.1819 157.374 31.1819V30.3425C157.374 29.8676 157.28 29.4691 157.091 29.1469C156.918 28.8247 156.62 28.5873 156.195 28.4346C155.786 28.265 155.212 28.1803 154.474 28.1803C153.829 28.1803 153.287 28.2481 152.846 28.3838C152.422 28.5025 152.1 28.6721 151.88 28.8925C151.675 29.096 151.573 29.3334 151.573 29.6048V29.9355H148.555C148.539 29.8507 148.531 29.7744 148.531 29.7065C148.531 29.6217 148.531 29.5285 148.531 29.4267C148.531 28.6466 148.767 27.9683 149.239 27.3917C149.726 26.8151 150.418 26.3742 151.314 26.0689C152.225 25.7467 153.318 25.5856 154.592 25.5856C155.896 25.5856 156.981 25.7467 157.846 26.0689C158.71 26.3742 159.355 26.849 159.779 27.4934C160.22 28.1379 160.44 28.9688 160.44 29.9863V36.0151C160.44 36.3373 160.51 36.5747 160.652 36.7273C160.809 36.88 161.014 36.9563 161.265 36.9563H162.232V39.1694C162.075 39.2372 161.815 39.322 161.454 39.4237C161.108 39.5255 160.699 39.5764 160.228 39.5764C159.677 39.5764 159.221 39.4916 158.86 39.322C158.514 39.1694 158.239 38.9489 158.034 38.6606C157.846 38.3554 157.712 38.0077 157.634 37.6177H157.468C157.123 38.0247 156.698 38.3808 156.195 38.686C155.708 38.9743 155.157 39.1948 154.544 39.3474C153.947 39.517 153.287 39.6018 152.563 39.6018ZM153.412 36.9563C153.9 36.9563 154.379 36.8884 154.851 36.7528C155.323 36.6171 155.747 36.4306 156.124 36.1931C156.502 35.9388 156.8 35.625 157.02 35.252C157.256 34.8789 157.374 34.4634 157.374 34.0055V33.3696C156.069 33.3696 154.945 33.4289 154.002 33.5476C153.059 33.6663 152.336 33.8868 151.832 34.209C151.329 34.5143 151.078 34.9552 151.078 35.5318C151.078 35.8709 151.18 36.1508 151.384 36.3712C151.589 36.5747 151.864 36.7273 152.21 36.8291C152.571 36.9139 152.972 36.9563 153.412 36.9563Z" fill="#F3EAFF"/>
<path d="M163.917 39.2966V25.8909H166.44L166.676 27.9259H166.864C167.21 27.4002 167.611 26.9677 168.067 26.6286C168.523 26.2724 169.018 26.0096 169.553 25.84C170.103 25.6704 170.661 25.5856 171.227 25.5856C172.17 25.5856 172.972 25.7721 173.632 26.1452C174.308 26.5183 174.811 27.1119 175.141 27.9259H175.33C175.692 27.4002 176.108 26.9677 176.58 26.6286C177.051 26.2724 177.562 26.0096 178.113 25.84C178.663 25.6704 179.229 25.5856 179.81 25.5856C180.738 25.5856 181.524 25.7552 182.169 26.0944C182.829 26.4335 183.332 26.9677 183.678 27.6969C184.039 28.4262 184.22 29.3758 184.22 30.546V39.2966H181.155V31.1819C181.155 30.6562 181.092 30.2153 180.966 29.8591C180.856 29.503 180.691 29.2232 180.471 29.0197C180.266 28.8162 180.015 28.6721 179.716 28.5873C179.417 28.4855 179.087 28.4346 178.726 28.4346C178.16 28.4346 177.641 28.5788 177.169 28.8671C176.698 29.1554 176.32 29.5539 176.037 30.0626C175.754 30.5714 175.613 31.165 175.613 31.8433V39.2966H172.547V31.1819C172.547 30.6562 172.484 30.2153 172.359 29.8591C172.249 29.503 172.084 29.2232 171.864 29.0197C171.659 28.8162 171.408 28.6721 171.109 28.5873C170.81 28.4855 170.472 28.4346 170.095 28.4346C169.545 28.4346 169.026 28.5788 168.539 28.8671C168.067 29.1554 167.69 29.5539 167.407 30.0626C167.124 30.5714 166.982 31.165 166.982 31.8433V39.2966H163.917Z" fill="#F3EAFF"/>
<path d="M187.252 48.1772L217.015 48.1772L217.015 18.4135L187.252 18.4135L187.252 48.1772Z" fill="white"/>
</svg>
