<svg width="63" height="21" viewBox="0 0 63 21" fill="none" xmlns="http://www.w3.org/2000/svg">
<mask id="mask0_8917_21396" style="mask-type:luminance" maskUnits="userSpaceOnUse" x="0" y="0" width="63" height="21">
<path d="M62.6586 0H0V20.8861H62.6586V0Z" fill="white"/>
</mask>
<g mask="url(#mask0_8917_21396)">
<path d="M54.6127 20.8861C59.2727 20.8861 60.7045 18.135 60.7045 16.2822C60.7045 12.745 55.8479 11.7064 55.8479 9.51675C55.8479 8.92708 56.2409 8.2253 57.2235 8.2253C58.1499 8.2253 58.5709 8.84289 58.7956 10.022C58.9078 10.6396 59.0763 11.1449 60.143 11.1449C61.5467 11.1449 62.3608 10.3027 62.3608 9.32019C62.3608 7.88844 60.5642 6.28833 57.5323 6.28833C54.0793 6.28833 51.7211 8.33768 51.7211 10.9203C51.7211 14.6541 56.297 15.3839 56.297 17.4052C56.297 17.9386 55.9601 18.7526 54.8091 18.7526C53.6582 18.7526 53.0687 17.9386 52.7599 16.7034C52.6195 16.1139 52.4231 15.6646 51.5528 15.6646C50.2333 15.6646 49.4193 16.591 49.4193 17.6859C49.4193 19.1457 50.907 20.8861 54.6127 20.8861ZM31.8456 20.8861C34.2037 20.8861 35.3828 19.9317 36.225 19.0614C36.5057 18.7807 36.9548 18.2755 37.3478 18.2755C37.5724 18.2755 37.7971 18.4158 38.5551 19.1738C39.5095 20.1282 41.0255 20.8861 43.3273 20.8861C47.7068 20.8861 49.0261 18.107 49.0261 16.2822C49.0261 12.7732 44.5627 11.6783 44.5627 9.54481C44.5627 8.95527 44.9557 8.2253 45.9101 8.2253C46.8646 8.2253 47.3699 8.95527 47.5663 10.4431C47.6505 11.0325 47.7909 11.3976 48.7454 11.3976C50.1771 11.3976 51.1879 10.6115 51.1879 9.46049C51.1879 7.88844 49.3349 6.28833 46.247 6.28833C42.7378 6.28833 40.4359 8.33768 40.4359 10.9203C40.4359 14.6259 44.6188 15.3839 44.6188 17.3771C44.6188 17.9386 44.2539 18.7526 43.159 18.7526C40.6323 18.7526 42.008 14.3171 39.2569 14.3171C36.9548 14.3171 36.0565 17.3209 33.1931 17.3209C31.8456 17.3209 30.9192 16.563 30.8069 15.5242C30.7507 15.047 30.9472 14.7944 31.3404 14.8224C31.5648 14.8505 31.7895 14.8505 32.0141 14.8505C36.1689 14.8505 39.7622 12.324 39.7622 9.37631C39.7622 7.38322 38.1058 6.28833 35.4389 6.28833C29.9367 6.28833 26.203 11.2852 26.203 15.412C26.203 18.4158 28.2242 20.8861 31.8456 20.8861ZM31.649 12.9977C31.0596 12.9977 30.8911 12.8574 30.8911 12.5486C30.8911 11.7064 32.0982 8.87109 34.2037 8.87109C34.9617 8.87109 35.4389 9.20795 35.4389 9.85361C35.4389 11.173 33.6703 12.9977 31.649 12.9977ZM4.3623 20.8861C8.48891 20.8861 10.033 17.1806 12.7842 11.4257L13.3737 10.1905C14.3001 8.2253 14.7492 7.13055 15.5915 7.13055C16.0406 7.13055 16.3212 7.43934 16.3212 8.05694C16.3212 8.67453 16.0406 9.43257 15.5633 10.5273L14.9457 11.9309C13.7947 14.5699 13.3737 15.4961 13.3737 17.1245C13.3737 19.1175 14.9177 20.8861 17.4442 20.8861C21.3744 20.8861 22.8904 16.8718 24.4064 13.2784L24.8555 12.2117C27.4663 5.97953 31.1157 4.26705 34.9617 4.26705C36.8707 4.26705 38.0217 4.68822 38.4708 4.68822C38.9481 4.68822 39.0885 4.18287 39.0885 3.67751C39.0885 2.35814 38.0778 0 33.9512 0C28.0558 0 25.2205 4.32317 22.3009 10.9766L21.7955 12.1274C20.9814 13.9522 20.5884 14.5699 19.8865 14.5699C19.4374 14.5699 19.0725 14.3171 19.0725 13.6716C19.0725 13.2784 19.1847 12.9977 19.8023 11.6221L20.1954 10.7519C21.2621 8.3938 21.6552 7.04623 21.6552 5.8391C21.6552 3.50915 20.1674 2.0774 17.6127 2.0774C14.1598 2.0774 12.8683 4.68822 11.4648 7.6359L10.2856 10.1063C9.24694 12.2959 7.78713 15.7488 1.3585 16.17C0.516285 16.2261 0.151367 16.5069 0.151367 17.3771C0.151367 19.2019 1.527 20.8861 4.3623 20.8861Z" fill="#F3EAFF"/>
</g>
</svg>
