<svg width="50" height="21" viewBox="0 0 50 21" fill="none" xmlns="http://www.w3.org/2000/svg">
<mask id="mask0_8917_21454" style="mask-type:luminance" maskUnits="userSpaceOnUse" x="0" y="0" width="50" height="21">
<path d="M49.8755 0H0V20.4375H49.8755V0Z" fill="white"/>
</mask>
<g mask="url(#mask0_8917_21454)">
<path d="M3.24209 15.9457H0.0851807C0.043897 15.885 -0.00120179 15.8503 2.44622e-05 15.8168C0.0245495 13.3932 -0.047665 10.9619 0.109568 8.54621C0.275929 5.99765 2.13356 4.18512 4.74398 3.76737C5.43749 3.65783 6.14259 3.62826 6.89932 3.55469V6.90644C6.64153 6.90644 6.38375 6.90644 6.13754 6.90644C3.96408 6.93737 3.25885 7.64382 3.24468 9.83404C3.23446 11.6169 3.24468 13.3997 3.24468 15.1812L3.24209 15.9457Z" fill="#F3EAFF"/>
<path d="M37.9283 3.60514C38.0057 3.87069 38.0444 4.03433 38.0999 4.19292C39.4422 8.03613 40.7847 11.8787 42.127 15.7201C42.5847 17.0312 42.0819 17.7415 40.6871 17.7826C40.3545 17.7918 40.0206 17.7826 39.6894 17.7826V20.4435C40.6419 20.3996 41.5534 20.379 42.4622 20.3146C43.5038 20.2372 44.1909 19.6209 44.6536 18.7327C44.8715 18.3147 45.0584 17.8813 45.2131 17.4359C46.2547 14.3747 47.2886 11.3101 48.3147 8.242C48.8304 6.7235 49.346 5.20622 49.8772 3.61931C49.0315 3.61931 48.2644 3.60773 47.4975 3.61931C46.8142 3.63212 46.3784 3.98283 46.1916 4.64419C45.9467 5.51046 45.6953 6.37415 45.4451 7.23907C44.9721 8.87625 44.4976 10.5122 43.9847 12.2847C43.8841 11.9573 43.8248 11.7755 43.772 11.5912C43.0577 9.0967 42.3371 6.60482 41.6011 4.12071C41.5418 3.9222 41.324 3.63089 41.1692 3.62449C40.1225 3.57925 39.0719 3.60514 37.9283 3.60514ZM31.0291 7.35897C31.0291 6.15888 30.4696 5.00252 29.6007 4.3567C27.787 3.00701 24.1749 2.9476 22.3354 4.27549C21.1752 5.11207 20.7137 6.30317 20.8438 7.70831C20.9625 8.97162 21.7256 9.77741 22.8497 10.2465C23.524 10.519 24.2125 10.7549 24.9122 10.953C25.7541 11.2005 26.6191 11.3707 27.4518 11.6401C27.8824 11.7793 28.2742 12.0604 28.2253 12.6185C28.1828 13.1458 27.8089 13.3856 27.3628 13.548C25.7103 14.1525 24.3734 13.5686 23.6038 11.9146H20.6002C20.434 13.6665 21.3286 15.1117 22.9618 15.7394C24.2999 16.2551 25.6921 16.2551 27.0871 16.1262C28.1479 16.0333 29.1676 15.7949 30.0391 15.1427C31.216 14.2608 31.6028 13.0259 31.4907 11.6195C31.3836 10.2866 30.5624 9.48596 29.3623 9.05419C28.6185 8.78728 27.8488 8.5953 27.0909 8.36572C26.2517 8.10793 25.397 7.89266 24.5862 7.56647C24.3412 7.46851 24.0705 7.05091 24.0847 6.79312C24.0988 6.5352 24.3811 6.16528 24.6403 6.0338C25.7039 5.49875 27.06 5.85068 27.8528 6.74026C28.0835 6.99804 28.4161 7.28812 28.7293 7.32286C29.4912 7.41183 30.2647 7.35515 31.0291 7.35515V7.35897ZM33.1471 0.0201334V15.9419H36.3376C36.3532 15.7201 36.3763 15.5319 36.3763 15.3438C36.3763 10.8387 36.3763 6.3341 36.3763 1.82994C36.3778 1.63674 36.3645 1.44367 36.3364 1.25251C36.2345 0.607915 35.7473 0.0832159 35.1091 0.0317134C34.471 -0.0199253 33.8316 0.0161806 33.1471 0.0161806V0.0201334ZM3.23978 15.9509V15.1878C3.23978 13.4062 3.23215 11.6233 3.23978 9.84049C3.25395 7.64904 3.95918 6.94395 6.13264 6.91288C6.38402 6.91288 6.63403 6.91288 6.89441 6.91288V3.56127C6.13767 3.63471 5.43258 3.66441 4.73907 3.77396C2.12866 4.1917 0.271021 6.0041 0.10466 8.55265C-0.0525723 10.9685 0.0196422 13.3997 -0.00488281 15.8232C-0.00488281 15.8581 0.0389897 15.8928 0.0802734 15.9521L3.23978 15.9509Z" fill="#F3EAFF"/>
<path d="M37.9287 3.60314C39.0721 3.60314 40.1202 3.58121 41.1694 3.62508C41.3242 3.63148 41.5421 3.92278 41.6013 4.1213C42.3374 6.60677 43.0516 9.09851 43.7708 11.5892C43.8237 11.7735 43.883 11.9553 43.9835 12.2827C44.4992 10.5102 44.9711 8.87424 45.4441 7.23706C45.6943 6.37215 45.9457 5.50846 46.1905 4.64218C46.3774 3.98083 46.8132 3.63012 47.4965 3.61731C48.2698 3.60314 49.0305 3.61731 49.8761 3.61731C49.3398 5.20421 48.8254 6.72149 48.3137 8.24C47.2824 11.3055 46.2486 14.3702 45.2121 17.4339C45.0575 17.8793 44.8704 18.3127 44.6527 18.7308C44.1912 19.6189 43.5041 20.2352 42.4612 20.3126C41.5588 20.3796 40.6409 20.4002 39.6882 20.4415V17.7832C40.0196 17.7832 40.3534 17.791 40.686 17.7832C42.0808 17.7433 42.5836 17.033 42.126 15.7207C40.7879 11.8766 39.4454 8.03426 38.0988 4.19351C38.0447 4.02851 38.006 3.86092 37.9287 3.60314Z" fill="#F3EAFF"/>
<path d="M31.0293 7.35507C30.265 7.35507 29.4915 7.41175 28.7347 7.32796C28.4215 7.29321 28.0901 7.00314 27.8581 6.74535C27.0654 5.85578 25.7092 5.50384 24.6457 6.0389C24.3878 6.16779 24.1029 6.53131 24.0901 6.79822C24.0772 7.065 24.3479 7.46843 24.5915 7.57157C25.4023 7.89776 26.257 8.11562 27.0963 8.37082C27.8543 8.6004 28.6238 8.79237 29.3678 9.05929C30.5678 9.49106 31.389 10.2917 31.496 11.6246C31.6081 13.031 31.2214 14.2659 30.0445 15.1478C29.1731 15.8 28.1534 16.0384 27.0924 16.1313C25.6924 16.2602 24.3002 16.2525 22.9673 15.7445C21.334 15.1168 20.4393 13.6716 20.6057 11.9197H23.6131C24.3866 13.5737 25.7195 14.1576 27.3721 13.5531C27.8182 13.3907 28.1921 13.1509 28.2346 12.6236C28.281 12.0655 27.889 11.7844 27.4611 11.6452C26.6283 11.3758 25.7634 11.2056 24.9215 10.9581C24.2219 10.76 23.5333 10.5241 22.859 10.2516C21.7349 9.7825 20.9718 8.97672 20.8531 7.71341C20.7242 6.30826 21.1857 5.11716 22.3446 4.28059C24.1843 2.9527 27.7962 3.0121 29.61 4.3618C30.4699 4.99863 31.0293 6.15484 31.0293 7.35507Z" fill="#F3EAFF"/>
<path d="M33.1475 0.0147526C33.832 0.0147526 34.4752 -0.0251698 35.1095 0.0263327C35.7437 0.0778352 36.2349 0.605123 36.3367 1.24713C36.3649 1.43829 36.3782 1.63136 36.3766 1.8247C36.3766 6.32871 36.3766 10.8334 36.3766 15.3384C36.3766 15.5265 36.3534 15.7147 36.338 15.9365H33.1475V0.0147526Z" fill="#F3EAFF"/>
<path d="M19.2974 10.6018C19.2974 9.95719 19.3283 9.35647 19.2974 8.76473C19.0911 5.34867 17.1059 3.42782 13.6859 3.33122C10.7931 3.25001 8.75627 4.76988 8.211 7.61492C8.00145 8.7943 7.96275 9.9978 8.09628 11.1883C8.31291 13.3333 9.30549 15.0866 11.448 15.8136C13.6666 16.5652 15.8219 16.3421 17.6706 14.7437C18.4439 14.0745 18.9132 13.2058 19.131 12.1474C18.3911 12.1474 17.7272 12.1642 17.0685 12.1474C16.7909 12.126 16.5123 12.1715 16.2562 12.2804C15.9999 12.3893 15.7737 12.5581 15.5963 12.7727C14.9427 13.5203 13.5479 13.715 12.616 13.2535C11.7431 12.8203 11.2095 11.7065 11.3822 10.6068L19.2974 10.6018ZM11.3152 8.49019C11.2791 7.64067 11.546 6.92645 12.2369 6.4444C13.0619 5.86819 13.9811 5.85648 14.8577 6.30392C15.7343 6.75123 15.9147 7.57227 15.974 8.49537L11.3152 8.49019Z" fill="#F3EAFF"/>
</g>
</svg>
