<svg xmlns="http://www.w3.org/2000/svg" viewBox="0 0 242.22 204.15"><defs><style>.cls-1{fill:#fff;}</style></defs><g id="Layer_2" data-name="Layer 2"><g id="Layer_1-2" data-name="Layer 1"><path class="cls-1" d="M201.92,81a101.91,101.91,0,0,1,.5,39.91A45.25,45.25,0,0,1,161.87,92c-.14-.82-.3-1.65-.47-2.47a61.81,61.81,0,0,0-2.15-7.66A60.61,60.61,0,1,0,140,149.4a45.22,45.22,0,0,1,30.84,28.1,102.06,102.06,0,1,1-1.12-151.84,102.69,102.69,0,0,1,11,11.3A101.6,101.6,0,0,1,201.92,81Z"/><path class="cls-1" d="M241.58,158.85a29,29,0,0,1-54.77,17.91,28,28,0,0,1-1.86-5.61,60.67,60.67,0,0,0-57.14-38.7l-1,.25a28,28,0,1,1,21.63-33.24c.06.3.11.6.17.9a60.12,60.12,0,0,0,12,17.83l.11.12a60.76,60.76,0,0,0,37.56,18l.17,0a61.22,61.22,0,0,0,15.24-.5A29,29,0,0,1,241.58,158.85Z"/></g></g></svg>