<svg width="122" height="18" viewBox="0 0 122 18" fill="none" xmlns="http://www.w3.org/2000/svg">
<path d="M19.9657 14.1527L16.6524 17.7054C16.5807 17.7825 16.4939 17.8441 16.3974 17.8862C16.3009 17.9284 16.1967 17.9502 16.0914 17.9503H0.384965C0.310054 17.9503 0.23678 17.9284 0.174115 17.8873C0.111452 17.8463 0.0621187 17.7878 0.0321549 17.7192C0.00219111 17.6505 -0.00710187 17.5746 0.00541467 17.5008C0.0179312 17.4269 0.0517113 17.3583 0.102623 17.3033L3.4122 13.7507C3.48387 13.6735 3.57064 13.612 3.66716 13.5698C3.76366 13.5277 3.86783 13.5059 3.97314 13.5057H19.6796C19.7551 13.5042 19.8295 13.525 19.8933 13.5656C19.9571 13.6063 20.0076 13.6648 20.038 13.734C20.0687 13.8031 20.078 13.8798 20.0651 13.9543C20.0522 14.0288 20.0177 14.0978 19.9657 14.1527ZM16.6524 6.99692C16.5804 6.92011 16.4936 6.85878 16.3971 6.81665C16.3007 6.77454 16.1966 6.75254 16.0914 6.75199H0.384965C0.310054 6.75203 0.23678 6.77391 0.174115 6.81497C0.111452 6.85601 0.0621187 6.91444 0.0321549 6.9831C0.00219111 7.05176 -0.00710187 7.12766 0.00541467 7.20152C0.0179312 7.27537 0.0517113 7.344 0.102623 7.39895L3.4122 10.9535C3.48413 11.0303 3.57098 11.0916 3.66743 11.1337C3.76387 11.1758 3.86791 11.1979 3.97314 11.1984H19.6796C19.7544 11.198 19.8273 11.1758 19.8898 11.1347C19.9522 11.0935 20.0012 11.035 20.0309 10.9664C20.0607 10.8979 20.0698 10.8221 20.0571 10.7484C20.0446 10.6747 20.0109 10.6063 19.9601 10.5515L16.6524 6.99692ZM0.384965 4.44462H16.0914C16.1967 4.44453 16.3009 4.42271 16.3974 4.38056C16.4939 4.33844 16.5807 4.27684 16.6524 4.19968L19.9657 0.647038C20.0177 0.592163 20.0522 0.523127 20.0651 0.448617C20.078 0.374107 20.0687 0.29745 20.038 0.228293C20.0076 0.159136 19.9571 0.100569 19.8933 0.0599618C19.8295 0.0193543 19.7551 -0.00147957 19.6796 8.17488e-05H3.97314C3.86783 0.000192599 3.76366 0.0219994 3.66716 0.0641424C3.57064 0.106285 3.48387 0.16786 3.4122 0.245028L0.102623 3.79767C0.0517113 3.85262 0.0179312 3.92124 0.00541467 3.9951C-0.00710187 4.06896 0.00219111 4.14485 0.0321549 4.21351C0.0621187 4.28217 0.111452 4.34061 0.174115 4.38165C0.23678 4.42271 0.310054 4.44459 0.384965 4.44462Z" fill="#F3EAFF"/>
<path d="M37.6305 7.54863H28.9633V4.69426H39.8832V1.83989H28.9343C28.5602 1.83786 28.1895 1.90953 27.8431 2.0508C27.4967 2.19209 27.1814 2.40021 26.9156 2.66329C26.6497 2.92638 26.4381 3.23928 26.2931 3.5841C26.148 3.92894 26.0722 4.29897 26.0703 4.67304V7.56599C26.0719 7.94039 26.1471 8.31084 26.2919 8.65611C26.4368 9.00139 26.6481 9.31473 26.9141 9.57822C27.1802 9.84173 27.4956 10.0502 27.8421 10.1917C28.1887 10.3332 28.56 10.405 28.9343 10.403H37.6132V13.2574H26.2767V16.1117H37.6305C38.0047 16.1138 38.3754 16.0421 38.7217 15.9008C39.0681 15.7595 39.3835 15.5514 39.6492 15.2883C39.9152 15.0253 40.1267 14.7124 40.2718 14.3675C40.4168 14.0227 40.4926 13.6527 40.4945 13.2786V10.3856C40.493 10.0112 40.4178 9.64081 40.2729 9.29553C40.1281 8.95024 39.9167 8.6369 39.6508 8.37341C39.3846 8.10992 39.0693 7.90145 38.7227 7.75993C38.3761 7.61841 38.0049 7.54661 37.6305 7.54863Z" fill="#F3EAFF"/>
<path d="M54.4214 1.83994H45.7213C45.3466 1.83689 44.975 1.90781 44.6276 2.04863C44.2805 2.18946 43.9644 2.39741 43.6976 2.66061C43.4307 2.92379 43.2186 3.23702 43.0731 3.58236C42.9275 3.9277 42.8515 4.29836 42.8496 4.6731V13.2786C42.8515 13.6534 42.9275 14.024 43.0731 14.3694C43.2186 14.7147 43.4307 15.0279 43.6976 15.2911C43.9644 15.5543 44.2805 15.7623 44.6276 15.9031C44.975 16.0439 45.3466 16.1148 45.7213 16.1118H54.4214C54.7955 16.1138 55.1662 16.0422 55.5126 15.9009C55.859 15.7596 56.1743 15.5515 56.4401 15.2884C56.706 15.0253 56.9176 14.7124 57.0626 14.3676C57.2077 14.0227 57.2835 13.6527 57.2854 13.2786V4.6731C57.2835 4.29902 57.2077 3.92899 57.0626 3.58415C56.9176 3.23933 56.706 2.92643 56.4401 2.66335C56.1743 2.40026 55.859 2.19214 55.5126 2.05085C55.1662 1.90958 54.7955 1.83791 54.4214 1.83994ZM54.4002 13.2574H45.7426V4.69431H54.3963L54.4002 13.2574Z" fill="#F3EAFF"/>
<path d="M84.8939 1.84005H76.408C76.0338 1.83803 75.6631 1.9097 75.3167 2.05097C74.9704 2.19226 74.655 2.40038 74.3893 2.66346C74.1233 2.92655 73.9117 3.23945 73.7667 3.58427C73.6217 3.92911 73.5459 4.29913 73.5439 4.67321V16.1119H76.4369V11.4234H84.8843V16.1119H87.7772V4.67321C87.7753 4.2975 87.6989 3.92589 87.5527 3.57977C87.4064 3.23368 87.1932 2.91993 86.9252 2.65658C86.6573 2.39324 86.3398 2.18553 85.9911 2.0454C85.6424 1.90526 85.2696 1.83548 84.8939 1.84005ZM84.8727 8.56904H76.4253V4.69443H84.8727V8.56904Z" fill="#F3EAFF"/>
<path d="M118.673 1.83989H110.187C109.813 1.83786 109.442 1.90953 109.096 2.0508C108.75 2.19209 108.435 2.40021 108.169 2.66329C107.903 2.92638 107.691 3.23928 107.546 3.5841C107.401 3.92894 107.325 4.29897 107.323 4.67304V16.1117H110.216V11.4232H118.644V16.1117H121.537V4.67304C121.535 4.29897 121.46 3.92894 121.314 3.5841C121.169 3.23928 120.958 2.92638 120.692 2.66329C120.426 2.40021 120.111 2.19209 119.764 2.0508C119.418 1.90953 119.047 1.83786 118.673 1.83989ZM118.644 8.56888H110.197V4.69426H118.644V8.56888Z" fill="#F3EAFF"/>
<path d="M101.867 13.2574H100.71L96.5731 3.03562C96.4313 2.68297 96.1873 2.38073 95.8726 2.1677C95.5578 1.95464 95.1866 1.84049 94.8064 1.83987H92.2394C91.9899 1.8386 91.7426 1.88648 91.5118 1.98077C91.2807 2.07508 91.0707 2.21395 90.8932 2.38945C90.716 2.56498 90.575 2.77367 90.4784 3.00368C90.3818 3.23367 90.3314 3.48046 90.3301 3.72993V16.1117H93.223V4.69424H94.3802L98.5152 14.916C98.6593 15.268 98.9052 15.569 99.2213 15.7806C99.5372 15.9922 99.9092 16.1048 100.29 16.104H102.857C103.106 16.1053 103.353 16.0574 103.584 15.9631C103.815 15.8688 104.025 15.7299 104.203 15.5544C104.38 15.3789 104.521 15.1702 104.618 14.9402C104.714 14.7102 104.765 14.4634 104.766 14.214V1.83987H101.867V13.2574Z" fill="#F3EAFF"/>
<path d="M62.7328 1.83984H59.8398V13.2785C59.8418 13.6535 59.918 14.0243 60.0636 14.3697C60.2092 14.7152 60.4215 15.0285 60.6884 15.2917C60.9554 15.5549 61.2718 15.7629 61.6192 15.9036C61.9667 16.0443 62.3386 16.115 62.7135 16.1117H71.3923V13.2573H62.7328V1.83984Z" fill="#F3EAFF"/>
</svg>
