<svg width="209" height="66" viewBox="0 0 209 66" fill="none" xmlns="http://www.w3.org/2000/svg">
<g clip-path="url(#clip0_10313_23493)">
<mask id="mask0_10313_23493" style="mask-type:luminance" maskUnits="userSpaceOnUse" x="24" y="21" width="161" height="24">
<path d="M185 21.0127H24V44.9384H185V21.0127Z" fill="white"/>
</mask>
<g mask="url(#mask0_10313_23493)">
<path d="M51.0496 39.8767L46.6333 44.612C46.5378 44.7149 46.4221 44.797 46.2934 44.8531C46.1648 44.9093 46.026 44.9384 45.8856 44.9385H24.9506C24.8508 44.9384 24.7531 44.9093 24.6696 44.8545C24.5861 44.7998 24.5203 44.722 24.4804 44.6304C24.4404 44.5389 24.428 44.4378 24.4447 44.3393C24.4614 44.2409 24.5064 44.1494 24.5743 44.0762L28.9856 39.3409C29.0811 39.238 29.1968 39.1559 29.3254 39.0998C29.4541 39.0436 29.5929 39.0145 29.7333 39.0144H50.6682C50.7689 39.0123 50.8681 39.0401 50.9531 39.0942C51.0381 39.1483 51.1054 39.2264 51.146 39.3186C51.1869 39.4108 51.1993 39.5129 51.1822 39.6123C51.165 39.7116 51.1189 39.8036 51.0496 39.8767ZM46.6333 30.3388C46.5374 30.2364 46.4216 30.1547 46.2931 30.0985C46.1645 30.0424 46.0259 30.0131 45.8856 30.0124H24.9506C24.8508 30.0124 24.7531 30.0416 24.6696 30.0963C24.5861 30.151 24.5203 30.2289 24.4804 30.3204C24.4404 30.4119 24.428 30.5131 24.4447 30.6115C24.4614 30.71 24.5064 30.8014 24.5743 30.8747L28.9856 35.6125C29.0815 35.7149 29.1972 35.7966 29.3258 35.8528C29.4543 35.9089 29.593 35.9382 29.7333 35.9389H50.6682C50.7679 35.9384 50.8651 35.9089 50.9484 35.854C51.0316 35.7991 51.0969 35.7212 51.1365 35.6298C51.1762 35.5384 51.1884 35.4374 51.1714 35.3392C51.1547 35.2409 51.1099 35.1497 51.0421 35.0766L46.6333 30.3388ZM24.9506 26.9369H45.8856C46.026 26.9368 46.1648 26.9077 46.2934 26.8515C46.4221 26.7954 46.5378 26.7133 46.6333 26.6104L51.0496 21.8751C51.1189 21.802 51.165 21.71 51.1822 21.6107C51.1993 21.5113 51.1869 21.4092 51.146 21.317C51.1054 21.2248 51.0381 21.1467 50.9531 21.0926C50.8681 21.0385 50.7689 21.0107 50.6682 21.0128H29.7333C29.5929 21.013 29.4541 21.042 29.3254 21.0982C29.1968 21.1544 29.0811 21.2364 28.9856 21.3393L24.5743 26.0746C24.5064 26.1478 24.4614 26.2393 24.4447 26.3377C24.428 26.4362 24.4404 26.5373 24.4804 26.6289C24.5203 26.7204 24.5861 26.7982 24.6696 26.853C24.7531 26.9077 24.8508 26.9368 24.9506 26.9369Z" fill="url(#paint0_linear_10313_23493)"/>
<path d="M76.5714 31.131H65.3712V27.4425H79.4824V23.754H65.3338C64.8503 23.7513 64.3713 23.844 63.9237 24.0265C63.4761 24.2091 63.0686 24.478 62.7252 24.818C62.3815 25.158 62.1081 25.5623 61.9207 26.0079C61.7333 26.4535 61.6353 26.9317 61.6328 27.4151V31.1535C61.6348 31.6373 61.732 32.116 61.9192 32.5622C62.1063 33.0084 62.3795 33.4133 62.7232 33.7538C63.0671 34.0943 63.4746 34.3637 63.9225 34.5466C64.3703 34.7294 64.8501 34.8222 65.3338 34.8196H76.549V38.5081H61.8995V42.1967H76.5714C77.0549 42.1993 77.5339 42.1067 77.9815 41.9241C78.4292 41.7415 78.8366 41.4726 79.1801 41.1326C79.5238 40.7927 79.7972 40.3883 79.9846 39.9427C80.172 39.4971 80.2699 39.019 80.2724 38.5356V34.7972C80.2704 34.3133 80.1732 33.8347 79.9861 33.3885C79.7989 32.9423 79.5257 32.5374 79.1821 32.1969C78.8381 31.8564 78.4306 31.587 77.9828 31.4041C77.5349 31.2212 77.0552 31.1284 76.5714 31.131Z" fill="white"/>
<path d="M98.27 23.754H87.0274C86.5431 23.7501 86.0629 23.8417 85.614 24.0237C85.1654 24.2057 84.7569 24.4744 84.4123 24.8145C84.0673 25.1546 83.7932 25.5594 83.6053 26.0057C83.4171 26.4519 83.3189 26.9309 83.3164 27.4152V38.5356C83.3189 39.0199 83.4171 39.4989 83.6053 39.9451C83.7932 40.3914 84.0673 40.7962 84.4123 41.1362C84.7569 41.4764 85.1654 41.7451 85.614 41.9271C86.0629 42.1091 86.5431 42.2007 87.0274 42.1968H98.27C98.7535 42.1994 99.2325 42.1068 99.6801 41.9242C100.128 41.7416 100.535 41.4727 100.879 41.1327C101.222 40.7927 101.496 40.3884 101.683 39.9428C101.871 39.4972 101.968 39.019 101.971 38.5356V27.4152C101.968 26.9318 101.871 26.4536 101.683 26.008C101.496 25.5624 101.222 25.158 100.879 24.8181C100.535 24.4781 100.128 24.2092 99.6801 24.0266C99.2325 23.844 98.7535 23.7514 98.27 23.754ZM98.2426 38.5082H87.0548V27.4426H98.2376L98.2426 38.5082Z" fill="white"/>
<path d="M137.647 23.7542H126.681C126.198 23.7516 125.719 23.8442 125.271 24.0267C124.824 24.2093 124.416 24.4783 124.073 24.8182C123.729 25.1582 123.456 25.5625 123.268 26.0081C123.081 26.4537 122.983 26.9319 122.98 27.4153V42.1969H126.719V36.1382H137.635V42.1969H141.373V27.4153C141.371 26.9298 141.272 26.4496 141.083 26.0023C140.894 25.5551 140.619 25.1496 140.272 24.8093C139.926 24.469 139.516 24.2006 139.065 24.0195C138.615 23.8384 138.133 23.7483 137.647 23.7542ZM137.62 32.4497H126.704V27.4427H137.62V32.4497Z" fill="white"/>
<path d="M181.3 23.754H170.334C169.85 23.7513 169.371 23.844 168.924 24.0265C168.476 24.2091 168.069 24.478 167.725 24.818C167.381 25.158 167.108 25.5623 166.921 26.0079C166.733 26.4535 166.635 26.9317 166.633 27.4151V42.1967H170.371V36.138H181.262V42.1967H185.001V27.4151C184.998 26.9317 184.9 26.4535 184.713 26.0079C184.525 25.5623 184.252 25.158 183.908 24.818C183.565 24.478 183.157 24.2091 182.71 24.0265C182.262 23.844 181.783 23.7513 181.3 23.754ZM181.262 32.4495H170.346V27.4425H181.262V32.4495Z" fill="white"/>
<path d="M159.581 38.5081H158.085L152.739 25.2991C152.556 24.8434 152.241 24.4529 151.834 24.1776C151.427 23.9023 150.948 23.7547 150.456 23.7539H147.139C146.817 23.7523 146.497 23.8142 146.199 23.936C145.9 24.0579 145.629 24.2373 145.4 24.4641C145.171 24.691 144.988 24.9606 144.864 25.2579C144.739 25.5551 144.674 25.874 144.672 26.1964V42.1967H148.41V27.4425H149.906L155.249 40.6515C155.435 41.1063 155.753 41.4953 156.161 41.7687C156.57 42.0422 157.05 42.1877 157.542 42.1867H160.859C161.182 42.1883 161.501 42.1265 161.799 42.0046C162.098 41.8828 162.369 41.7033 162.599 41.4765C162.828 41.2497 163.01 40.98 163.135 40.6828C163.26 40.3856 163.325 40.0667 163.326 39.7443V23.7539H159.581V38.5081Z" fill="white"/>
<path d="M109.012 23.7539H105.273V38.5355C105.276 39.02 105.374 39.4992 105.563 39.9456C105.751 40.392 106.025 40.7969 106.37 41.137C106.715 41.4772 107.124 41.7458 107.573 41.9277C108.022 42.1095 108.502 42.2009 108.987 42.1966H120.202V38.5081H109.012V23.7539Z" fill="white"/>
</g>
</g>
<defs>
<linearGradient id="paint0_linear_10313_23493" x1="26.6952" y1="45.5092" x2="48.647" y2="20.7611" gradientUnits="userSpaceOnUse">
<stop offset="0.08" stop-color="#9945FF"/>
<stop offset="0.3" stop-color="#8752F3"/>
<stop offset="0.5" stop-color="#5497D5"/>
<stop offset="0.6" stop-color="#43B4CA"/>
<stop offset="0.72" stop-color="#28E0B9"/>
<stop offset="0.97" stop-color="#19FB9B"/>
</linearGradient>
<clipPath id="clip0_10313_23493">
<rect width="161" height="23.9257" fill="white" transform="translate(24 21.0127)"/>
</clipPath>
</defs>
</svg>
