<svg width="96" height="26" viewBox="0 0 96 26" fill="none" xmlns="http://www.w3.org/2000/svg">
<mask id="mask0_9147_21814" style="mask-type:luminance" maskUnits="userSpaceOnUse" x="0" y="0" width="26" height="26">
<path d="M25.6861 0H0V25.6861H25.6861V0Z" fill="white"/>
</mask>
<g mask="url(#mask0_9147_21814)">
<path d="M11.7075 7.39159C12.4057 8.26172 13.305 8.94906 14.328 9.39435C15.351 9.83963 16.4668 10.0294 17.5794 9.94751C17.6242 9.94247 17.6696 9.95037 17.7101 9.97026C17.7505 9.99015 17.7846 10.0211 17.808 10.0596C17.8316 10.0982 17.8436 10.1426 17.8426 10.1877C17.8418 10.2327 17.828 10.2766 17.8031 10.3142C17.1915 11.2474 16.8161 12.3153 16.709 13.4259C16.6018 14.5366 16.7664 15.6565 17.1882 16.6894C17.2047 16.7303 17.2095 16.775 17.2018 16.8184C17.1945 16.8619 17.175 16.9025 17.1457 16.9354C17.1164 16.9684 17.0784 16.9927 17.0362 17.0052C16.994 17.0179 16.949 17.0184 16.9064 17.007C15.8287 16.7125 14.6954 16.6848 13.6044 16.9263C12.5136 17.168 11.4981 17.6714 10.6454 18.3932C10.6113 18.4214 10.5701 18.4395 10.5263 18.4458C10.4825 18.4519 10.438 18.4461 10.3975 18.4283C10.3571 18.4108 10.3222 18.3823 10.2967 18.3461C10.2715 18.31 10.2567 18.2675 10.2541 18.2233C10.2002 17.1094 9.87611 16.0251 9.31014 15.0643C8.74417 14.1031 7.95303 13.2942 7.00485 12.7068C6.96752 12.6832 6.93742 12.6497 6.91794 12.6101C6.89846 12.5703 6.89043 12.526 6.89465 12.4821C6.89874 12.4381 6.91494 12.396 6.9415 12.3607C6.9682 12.3254 7.00403 12.2982 7.04517 12.282C8.08925 11.8871 9.02177 11.2441 9.76196 10.4085C10.5021 9.57292 11.0279 8.56971 11.2938 7.48544C11.3042 7.44267 11.3264 7.40371 11.3578 7.37279C11.3892 7.34187 11.4285 7.32035 11.4716 7.31054C11.5145 7.30087 11.5593 7.30318 11.601 7.31749C11.6428 7.33179 11.6796 7.35753 11.7075 7.39159Z" fill="#F3EAFF"/>
<path d="M12.6787 2.84749C14.6557 2.84749 16.5882 3.43361 18.2319 4.53191C19.8757 5.63034 21.1568 7.19136 21.9134 9.01772C22.6699 10.8442 22.868 12.8539 22.4822 14.7928C22.0964 16.7318 21.1444 18.5128 19.7466 19.9108C18.3486 21.3086 16.5676 22.2606 14.6288 22.6462C12.6899 23.032 10.6801 22.8339 8.85369 22.0774C7.0272 21.3209 5.46618 20.0398 4.36788 18.3961C3.26959 16.7524 2.68332 14.8198 2.68332 12.8429C2.68618 10.1928 3.74021 7.65217 5.61411 5.77827C7.48801 3.90437 10.0287 2.85035 12.6787 2.84749ZM12.6787 0.164062C10.1712 0.164062 7.71984 0.907657 5.63481 2.30086C3.54978 3.69406 1.92475 5.6742 0.965115 7.99094C0.00548577 10.3077 -0.245559 12.8569 0.243587 15.3164C0.732868 17.7759 1.94041 20.035 3.71351 21.8081C5.48675 23.5813 7.74586 24.7889 10.2052 25.278C12.6647 25.7673 15.2139 25.5163 17.5307 24.5565C19.8475 23.5969 21.8277 21.9718 23.2209 19.8868C24.614 17.8018 25.3575 15.3505 25.3575 12.8429C25.3575 9.4803 24.0217 6.25529 21.6439 3.87767C19.2663 1.49992 16.0413 0.164062 12.6787 0.164062Z" fill="#F3EAFF"/>
</g>
<mask id="mask1_9147_21814" style="mask-type:luminance" maskUnits="userSpaceOnUse" x="34" y="7" width="62" height="12">
<path d="M95.19 7.55469H34.752V18.1313H95.19V7.55469Z" fill="white"/>
</mask>
<g mask="url(#mask1_9147_21814)">
<path d="M34.752 14.7995H36.819C36.819 15.6032 37.5626 16.2868 38.7726 16.2868C39.9951 16.2868 40.7514 15.747 40.7514 14.9914C40.7514 14.3196 40.1842 13.9719 39.3902 13.8039L37.9534 13.48C35.9746 12.9883 35.0672 12.0167 35.0672 10.5173C35.0672 8.87406 36.6299 7.55469 38.8355 7.55469C40.6504 7.55469 42.604 8.46623 42.604 10.5774H40.474C40.474 9.84568 39.68 9.34196 38.8861 9.34196C37.9534 9.34196 37.3231 9.88164 37.3231 10.5774C37.3231 11.2011 37.9407 11.5489 38.5961 11.7049L40.2094 12.0767C42.4907 12.6164 42.9822 13.9599 42.9822 15.0394C42.9822 16.9585 40.9782 18.086 38.7978 18.086C36.819 18.086 34.7898 16.8986 34.752 14.7995ZM43.9779 12.7844C43.9779 9.58183 46.5237 7.55469 49.5486 7.55469C52.5735 7.55469 55.1321 9.58183 55.1321 12.7844C55.1321 15.9869 52.5609 18.086 49.5361 18.086C46.5112 18.086 43.9779 15.9869 43.9779 12.7844ZM52.9011 12.7844C52.9011 10.8413 51.3509 9.53388 49.5361 9.53388C47.7211 9.53388 46.1961 10.8293 46.1961 12.7844C46.1961 14.7514 47.7211 16.0709 49.5361 16.0709C51.3509 16.0709 52.9011 14.7514 52.9011 12.7844ZM63.5512 7.92655L63.1605 9.94171C62.6689 9.72581 62.1396 9.6058 61.5976 9.59381C59.6694 9.59381 58.7618 11.5129 58.7618 14.2477V17.8822H56.5058V7.78258H58.7618V10.0496C59.3038 8.27444 60.3751 7.56668 61.7363 7.56668C62.4547 7.55469 63.2109 7.72264 63.5512 7.92655ZM75.0331 7.77059V17.8701H72.8022V16.3588C72.0965 17.5103 70.5714 18.086 69.1473 18.086C66.2609 18.086 63.8789 16.011 63.8789 12.8083C63.8789 9.58183 66.2609 7.55469 69.122 7.55469C70.6218 7.55469 72.0965 8.11848 72.8022 9.25791V7.7586H75.0331V7.77059ZM72.7897 12.7844C72.7897 10.7572 71.0378 9.55785 69.3993 9.55785C67.5844 9.55785 66.1097 10.8772 66.1097 12.7844C66.1097 14.6675 67.5844 16.0709 69.3993 16.0709C71.2017 16.0709 72.7897 14.8235 72.7897 12.7844ZM83.8178 7.92655L83.427 9.94171C82.9356 9.72581 82.4063 9.6058 81.8643 9.59381C79.9359 9.59381 79.0284 11.5129 79.0284 14.2477V17.8822H76.785V7.78258H79.0411V10.0496C79.5829 8.27444 80.6543 7.56668 82.0155 7.56668C82.7213 7.55469 83.4774 7.72264 83.8178 7.92655ZM94.8459 13.6719H86.3889C86.6788 15.3152 87.9518 16.1189 89.6785 16.1189C90.901 16.1189 92.0606 15.6272 92.653 14.6915L94.43 15.5311C93.4974 17.2225 91.5942 18.086 89.565 18.086C86.5023 18.086 84.095 15.9869 84.095 12.7844C84.095 9.58183 86.5527 7.55469 89.565 7.55469C92.5772 7.55469 94.8838 9.58183 94.8838 12.7604C94.8838 13.0482 94.8586 13.3482 94.8459 13.6719ZM92.6655 11.9687C92.4638 10.3855 91.2287 9.52189 89.6029 9.52189C87.977 9.52189 86.7418 10.3015 86.4268 11.9687H92.6655Z" fill="#F3EAFF"/>
</g>
</svg>
