<svg width="82" height="22" viewBox="0 0 82 22" fill="none" xmlns="http://www.w3.org/2000/svg">
<mask id="mask0_8917_21418" style="mask-type:luminance" maskUnits="userSpaceOnUse" x="0" y="0" width="82" height="22">
<path d="M81.7286 0H0V21.1672H81.7286V0Z" fill="white"/>
</mask>
<g mask="url(#mask0_8917_21418)">
<path d="M32.8772 9.54428C32.8772 8.98171 33.4183 8.57048 34.3275 8.57048C35.323 8.57048 36.1891 8.89481 36.8817 9.71809L38.375 8.15925C37.5957 7.07717 36.1238 6.44922 34.2621 6.44922C31.6213 6.44922 30.2793 7.96488 30.2793 9.5451C30.2793 13.2682 35.8425 12.359 35.8425 14.2205C35.8425 14.87 35.323 15.3027 34.3052 15.3027C33.0716 15.3027 32.0755 14.87 31.2745 13.9823L29.8027 15.6709C30.6904 16.7101 32.1839 17.4241 34.1538 17.4241C36.9677 17.4241 38.4611 15.9307 38.4611 14.1776C38.4619 10.3022 32.8772 11.3629 32.8772 9.54428Z" fill="#F3EAFF"/>
<path d="M43.8922 6.75037V4.06641H41.2512V6.75037H39.4111V9.08849H41.2297V13.5694C41.2297 16.102 42.5717 17.4225 44.6716 17.4225C45.949 17.4225 46.9228 16.9467 47.5069 16.3833L46.3164 14.4134C46.0566 14.7162 45.58 14.9329 45.1043 14.9329C44.3249 14.9329 43.9137 14.4572 43.9137 13.4826V9.08849H48.7267V17.1197H51.3678V6.75037H48.7267H43.8922Z" fill="#F3EAFF"/>
<path d="M50.0255 2.25C49.1816 2.25 48.4883 2.96404 48.4883 3.8087C48.4883 4.67502 49.1808 5.34601 50.0255 5.34601C50.8918 5.34601 51.5843 4.67502 51.5843 3.8087C51.5843 2.96485 50.891 2.25 50.0255 2.25Z" fill="#F3EAFF"/>
<path d="M58.4538 14.9329C57.6745 14.9329 57.2633 14.4572 57.2633 13.4826V9.08849H60.0558V6.75037H57.2418V4.06641H54.6009V6.75037H52.7607V9.08849H54.5793V13.5694C54.5793 16.102 55.9213 17.4225 58.0212 17.4225C59.2986 17.4225 60.2723 16.9467 60.8566 16.3833L59.666 14.4134C59.4061 14.7162 58.9293 14.9329 58.4538 14.9329Z" fill="#F3EAFF"/>
<path d="M66.8521 8.93785C67.8699 8.93785 68.6491 9.263 69.2987 9.89013L70.8134 8.0071C69.9044 7.05483 68.4968 6.44922 66.7222 6.44922C63.6918 6.44922 61.3105 8.91715 61.3105 11.9478C61.3105 14.9569 63.6918 17.4241 66.7651 17.4241C68.4103 17.4241 69.9044 16.7747 70.7269 15.8653L69.3846 13.9169C68.7354 14.5664 67.8912 14.9346 66.8305 14.9346C65.1417 14.9346 63.9517 13.5926 63.9517 11.9254C63.9517 10.2583 65.1206 8.93785 66.8521 8.93785Z" fill="#F3EAFF"/>
<path d="M77.7893 6.44784C76.5123 6.44784 75.5168 6.92432 74.8671 7.76831V2.22656H72.2266V17.1191H74.8671V11.2316C74.8671 9.82432 75.6686 8.93743 76.9885 8.93743C78.2662 8.93743 79.0888 9.82514 79.0888 11.2316V17.1191H81.7294V10.841C81.7287 8.13649 80.1924 6.44784 77.7893 6.44784Z" fill="#F3EAFF"/>
<path fill-rule="evenodd" clip-rule="evenodd" d="M8.58878 21.1413C9.5841 21.1586 10.4349 21.1672 11.2676 21.1672C12.0994 21.1672 12.9253 21.1586 13.7907 21.1405L13.8758 21.1379C15.02 21.0897 16.0996 20.8377 17.0836 20.3869C18.0455 19.9464 18.8903 19.3306 19.5938 18.5563C20.252 17.8337 20.7612 17.0001 21.1088 16.0797C21.2043 15.825 21.2876 15.5652 21.3566 15.3029C22.7329 14.7901 23.9734 13.8843 24.8973 12.7066C25.9975 11.3054 26.6031 9.57369 26.6031 7.83164C26.6031 6.73403 26.3717 5.67414 25.915 4.68237C25.5045 3.79193 24.9222 2.97996 24.1841 2.2677C22.7596 0.894656 20.7964 0.120414 18.5074 0.0284698L18.4644 0.0266979L18.4205 0.0258821C17.4217 0.00858287 16.5711 0 15.7418 0C14.9108 0 14.0857 0.00858138 13.2186 0.0266979C13.2186 0.0266979 13.1541 0.0284709 13.1326 0.0292882C11.9886 0.077508 10.9089 0.329505 9.92558 0.780238C8.96391 1.22075 8.11911 1.83671 7.41543 2.61082C6.75738 3.33439 6.24807 4.16707 5.90059 5.08747C5.8051 5.34219 5.7216 5.60195 5.65282 5.8643C4.27637 6.37701 3.036 7.28283 2.11206 8.46054C1.01186 9.86192 0.40625 11.5935 0.40625 13.3355C0.40625 14.4331 0.637541 15.493 1.0944 16.4849C1.50468 17.3752 2.08713 18.1882 2.82514 18.8996C4.24981 20.2725 6.21279 21.0467 8.49928 21.1387L8.54492 21.1405L8.58878 21.1413ZM23.1095 3.38247C23.7083 3.95961 24.1788 4.61521 24.5083 5.33007C24.8713 6.11711 25.0553 6.95933 25.0563 7.83246C25.0563 9.22947 24.5675 10.6214 23.6806 11.7518C22.8222 12.846 21.6298 13.6494 20.324 14.0133L20.0177 14.0985C19.9567 14.5862 19.838 15.0671 19.6616 15.5333C19.3829 16.2697 18.9751 16.9373 18.4496 17.5154C17.8869 18.1339 17.2109 18.6268 16.44 18.9796C15.6391 19.346 14.7548 19.5515 13.8119 19.5912C13.7965 19.592 13.781 19.5928 13.7655 19.5928H13.7595C12.9035 19.6101 12.0881 19.6187 11.2674 19.6187C10.445 19.6187 9.60276 19.6101 8.61616 19.5928L8.59027 19.592L8.56453 19.5912C6.65998 19.5137 5.04612 18.8891 3.89946 17.7837C3.30067 17.2066 2.83018 16.551 2.50068 15.8361C2.13848 15.049 1.95446 14.2077 1.95446 13.3346C1.95446 11.9375 2.44306 10.5457 3.32913 9.41445C4.18756 8.32024 5.37984 7.51672 6.68573 7.15289L6.99194 7.06775C7.0531 6.57997 7.17174 6.09913 7.34814 5.63287C7.62683 4.8965 8.03452 4.22891 8.56017 3.65082C9.12274 3.03227 9.79891 2.53944 10.5697 2.18665C11.3697 1.82023 12.2532 1.61469 13.1961 1.57505C13.2115 1.57423 13.2278 1.57341 13.2434 1.57341H13.2494C14.1053 1.55611 14.9208 1.54753 15.7415 1.54753C16.564 1.54753 17.4061 1.55611 18.3928 1.57341L18.4185 1.57423L18.4444 1.57505C20.349 1.65255 21.9628 2.27709 23.1095 3.38247ZM18.0926 9.16232C19.05 9.83767 19.6393 11.3088 19.7149 11.8327C21.4362 11.3526 22.7912 9.70432 22.7912 7.83246C22.7912 6.70638 22.3061 5.75247 21.5387 5.01255C20.7714 4.27359 19.6659 3.89083 18.3532 3.83757C16.582 3.80651 15.0722 3.80133 13.2958 3.83757H13.2932C10.5853 3.9494 9.20964 5.95979 9.20964 7.83246C9.20964 8.95854 9.66392 9.89025 10.2584 10.4975C10.8897 11.1668 11.6364 11.5865 13.092 11.873C13.4963 11.9521 14.1888 12.0881 14.5371 12.4588C14.7315 12.6653 14.8864 12.9664 14.8864 13.2692C14.8864 13.5471 14.7909 13.8593 14.5656 14.1028C14.3479 14.3376 13.9668 14.5045 13.5332 14.5123C11.9392 14.5414 10.0957 14.539 8.50078 14.5123C8.06721 14.5045 7.68622 14.3376 7.46855 14.1028C7.24312 13.8584 7.14763 13.5471 7.14763 13.2692C7.14763 12.6644 7.66729 12.0262 8.62814 12.0262C8.72281 12.0245 8.81571 12.0245 8.91119 12.0253C8.92236 12.0253 8.92659 12.0115 8.91801 12.0055C7.96056 11.3302 7.3713 9.85919 7.2957 9.33531C5.57517 9.81533 4.21943 11.4635 4.21943 13.3354C4.21943 14.4615 4.70463 15.4163 5.47192 16.1553C6.23922 16.8943 7.34473 17.2771 8.65743 17.3304C10.4286 17.3613 11.9384 17.3665 13.7148 17.3304H13.7174C16.4255 17.2186 17.801 15.2082 17.801 13.3354C17.801 12.2093 17.3467 11.2777 16.7524 10.6705C16.1209 10.0011 15.3742 9.58131 13.9187 9.29485C13.5143 9.21571 12.8219 9.07977 12.4735 8.709C12.2791 8.50263 12.1242 8.20146 12.1242 7.89866C12.1242 7.62078 12.2197 7.30858 12.445 7.06516C12.6627 6.83033 13.0438 6.66347 13.4774 6.6557C15.0714 6.62642 16.9149 6.629 18.5098 6.6557C18.9434 6.66347 19.3244 6.83033 19.542 7.06516C19.7675 7.3094 19.863 7.62078 19.863 7.89866C19.863 8.50345 19.3433 9.14175 18.3824 9.14175C18.2878 9.14352 18.1949 9.14352 18.0994 9.14257C18.0882 9.14257 18.084 9.15633 18.0926 9.16232Z" fill="#F3EAFF"/>
</g>
</svg>
