<svg width="161" height="22" viewBox="0 0 161 22" fill="none" xmlns="http://www.w3.org/2000/svg">
<path d="M0 6.14947C0 1.62237 3.8795 1.90181 5.17267 1.90181H10.2329V11.1237H6.35337C6.35337 11.1237 10.2329 12.2415 10.2329 15.4273C10.2329 19.8986 6.37241 19.8985 5.79464 19.8984H5.79115C4.89154 19.8984 0 19.8984 0 19.8984V10.6766H4.89154C4.89154 10.6766 0 10.2295 0 6.14947Z" fill="#F3EAFF"/>
<path d="M11.4658 1.89844C11.4658 1.89844 11.4658 13.5258 11.6348 14.7556C11.8812 16.5478 12.3803 17.6246 13.7761 18.7245C15.2681 19.9002 18.5658 19.8984 18.5658 19.8984L18.6221 11.2338C18.6221 11.2338 21.6086 11.4015 22.961 8.83012C23.7241 7.37913 23.5245 4.74935 23.5245 4.74935H18.5658L18.5658 1.89844H11.4658Z" fill="#F3EAFF"/>
<path d="M35.7026 17.5266C34.7908 17.5266 33.9576 17.4333 33.203 17.2468C32.4484 17.0603 31.796 16.7974 31.2457 16.4582C30.7112 16.1021 30.2946 15.6697 29.9959 15.1609C29.6972 14.6521 29.5479 14.0671 29.5479 13.4057C29.5479 13.3209 29.5479 13.2446 29.5479 13.1768C29.5636 13.1089 29.5714 13.0496 29.5714 12.9987H32.6606C32.6606 13.0326 32.6528 13.075 32.637 13.1259C32.637 13.1598 32.637 13.1937 32.637 13.2276C32.6528 13.6686 32.8021 14.0247 33.0851 14.296C33.3838 14.5504 33.7689 14.7369 34.2406 14.8556C34.7279 14.9744 35.2389 15.0337 35.7734 15.0337C36.2764 15.0337 36.7559 14.9913 37.2118 14.9065C37.6835 14.8217 38.0686 14.6776 38.3673 14.4741C38.666 14.2536 38.8154 13.9484 38.8154 13.5583C38.8154 13.1174 38.6425 12.7952 38.2966 12.5917C37.9507 12.3712 37.4712 12.1932 36.8581 12.0575C36.245 11.9218 35.5376 11.7777 34.7358 11.6251C34.0912 11.4894 33.4781 11.3283 32.8964 11.1417C32.3305 10.9552 31.8195 10.7178 31.3636 10.4295C30.9234 10.1242 30.5697 9.74266 30.3025 9.28478C30.0509 8.8269 29.9252 8.25879 29.9252 7.58045C29.9252 6.88515 30.0666 6.28312 30.3496 5.77437C30.6326 5.26561 31.0335 4.85013 31.5523 4.52792C32.0868 4.18875 32.7156 3.94285 33.4388 3.79023C34.1777 3.62064 34.9873 3.53585 35.8677 3.53585C36.7009 3.53585 37.4555 3.62064 38.1315 3.79023C38.8233 3.94285 39.4207 4.18027 39.9237 4.50248C40.4268 4.82469 40.8198 5.21474 41.1028 5.67262C41.3858 6.1305 41.5273 6.64773 41.5273 7.22432C41.5273 7.32607 41.5273 7.41934 41.5273 7.50414C41.5273 7.58893 41.5194 7.65676 41.5037 7.70764H38.4381V7.55501C38.4381 7.21584 38.3202 6.93603 38.0844 6.71557C37.8643 6.47815 37.5577 6.30008 37.1647 6.18137C36.7717 6.06266 36.3158 6.00331 35.797 6.00331C35.514 6.00331 35.2074 6.02875 34.8773 6.07962C34.5471 6.11354 34.2406 6.18137 33.9576 6.28312C33.6746 6.38488 33.4388 6.51206 33.2502 6.66469C33.0772 6.81732 32.9908 7.02082 32.9908 7.2752C32.9908 7.61437 33.148 7.87722 33.4624 8.06377C33.7768 8.25031 34.1934 8.40294 34.7122 8.52165C35.231 8.64036 35.797 8.76754 36.4101 8.90321C37.0861 9.03888 37.7542 9.19151 38.4145 9.36109C39.0748 9.53068 39.6643 9.75962 40.1831 10.0479C40.7019 10.3192 41.1185 10.7008 41.4329 11.1926C41.7474 11.6844 41.9046 12.3373 41.9046 13.1513C41.9046 13.9653 41.7552 14.6521 41.4565 15.2118C41.1735 15.7714 40.7569 16.2208 40.2067 16.56C39.6722 16.8991 39.0198 17.145 38.2494 17.2977C37.4948 17.4503 36.6459 17.5266 35.7026 17.5266Z" fill="#F3EAFF"/>
<path d="M48.9912 17.5266C47.5291 17.5266 46.3894 17.1281 45.5719 16.331C44.7544 15.534 44.3456 14.2536 44.3456 12.4899V3.81566H47.4112V11.9049C47.4112 12.4306 47.4741 12.8715 47.5999 13.2276C47.7256 13.5838 47.9064 13.8721 48.1423 14.0925C48.3781 14.296 48.6611 14.4486 48.9912 14.5504C49.3371 14.6352 49.7144 14.6776 50.1231 14.6776C50.7205 14.6776 51.2707 14.5334 51.7738 14.2451C52.2926 13.9568 52.7092 13.5583 53.0236 13.0496C53.3381 12.5408 53.4953 11.9473 53.4953 11.2689V3.81566H56.5609V17.2214H54.0612L53.8254 15.1863H53.6368C53.2752 15.7121 52.8507 16.153 52.3633 16.5091C51.876 16.8483 51.3415 17.1026 50.7598 17.2722C50.1938 17.4418 49.6043 17.5266 48.9912 17.5266Z" fill="#F3EAFF"/>
<path d="M59.7772 21.8002V3.81566H62.2768L62.5362 5.77437H62.7248C63.2122 4.97732 63.8253 4.40073 64.5642 4.0446C65.3188 3.68847 66.152 3.51041 67.0639 3.51041C68.2115 3.51041 69.2019 3.76479 70.0351 4.27354C70.8841 4.76534 71.5365 5.52847 71.9924 6.56294C72.464 7.59741 72.6998 8.92017 72.6998 10.5312C72.6998 12.1084 72.464 13.4227 71.9924 14.4741C71.5365 15.5085 70.8998 16.2802 70.0823 16.7889C69.2648 17.2807 68.3215 17.5266 67.2525 17.5266C66.6394 17.5266 66.0656 17.4503 65.5311 17.2977C64.9965 17.162 64.517 16.95 64.0926 16.6617C63.6681 16.3734 63.3065 16.0173 63.0078 15.5933H62.8428V21.8002H59.7772ZM66.2149 14.703C66.9695 14.703 67.5905 14.5589 68.0779 14.2706C68.5809 13.9653 68.9504 13.5159 69.1862 12.9224C69.4377 12.3288 69.5635 11.5911 69.5635 10.7093V10.3532C69.5635 9.45436 69.4377 8.70819 69.1862 8.11464C68.9504 7.5211 68.5809 7.08017 68.0779 6.79188C67.5748 6.48663 66.9459 6.334 66.1913 6.334C65.4682 6.334 64.855 6.49511 64.352 6.81732C63.8489 7.12257 63.4716 7.58045 63.2201 8.19096C62.9685 8.7845 62.8428 9.51372 62.8428 10.3786V10.633C62.8428 11.2774 62.9135 11.854 63.055 12.3627C63.1965 12.8715 63.4087 13.3039 63.6917 13.6601C63.9904 13.9992 64.3441 14.2621 64.7529 14.4486C65.1773 14.6182 65.6647 14.703 66.2149 14.703Z" fill="#F3EAFF"/>
<path d="M81.664 17.5266C80.2019 17.5266 78.9599 17.2807 77.9381 16.7889C76.9319 16.2802 76.1616 15.5085 75.6271 14.4741C75.0926 13.4396 74.8253 12.1253 74.8253 10.5312C74.8253 8.93713 75.0847 7.62285 75.6035 6.58838C76.138 5.55391 76.9083 4.7823 77.9145 4.27354C78.9364 3.76479 80.1705 3.51041 81.6168 3.51041C83.0317 3.51041 84.2186 3.76479 85.1776 4.27354C86.1523 4.76534 86.8833 5.51151 87.3707 6.51206C87.858 7.51262 88.1017 8.76754 88.1017 10.2769V11.3452H78.0088C78.0403 12.1762 78.1975 12.863 78.4804 13.4057C78.7791 13.9314 79.1957 14.3215 79.7303 14.5758C80.2805 14.8132 80.9486 14.932 81.7347 14.932C82.0806 14.932 82.4421 14.8896 82.8194 14.8048C83.1968 14.703 83.5426 14.5589 83.857 14.3723C84.1715 14.1858 84.4308 13.9399 84.6352 13.6346C84.8553 13.3294 84.9732 12.9733 84.9889 12.5662H88.0545C88.0545 13.3294 87.9052 14.0162 87.6065 14.6267C87.3078 15.2372 86.8755 15.7629 86.3095 16.2038C85.7593 16.6278 85.0911 16.9585 84.3051 17.1959C83.519 17.4164 82.6387 17.5266 81.664 17.5266ZM78.0324 9.08128H84.8946C84.8946 8.55556 84.8082 8.10616 84.6352 7.73308C84.478 7.35999 84.2501 7.05474 83.9514 6.81732C83.6527 6.56294 83.3068 6.38488 82.9138 6.28312C82.5207 6.16442 82.0963 6.10506 81.6404 6.10506C80.9329 6.10506 80.3198 6.21529 79.801 6.43575C79.2822 6.65621 78.8735 6.9869 78.5748 7.42782C78.2918 7.86874 78.111 8.4199 78.0324 9.08128Z" fill="#F3EAFF"/>
<path d="M90.774 17.2214V3.81566H93.2972L93.533 6.05419H93.6981C93.871 5.61326 94.0911 5.19778 94.3584 4.80773C94.6413 4.41769 94.9951 4.10396 95.4195 3.86654C95.8597 3.62912 96.3628 3.51041 96.9287 3.51041C97.196 3.51041 97.4475 3.53585 97.6834 3.58672C97.9349 3.6376 98.1471 3.69695 98.3201 3.76479V6.76644H97.0702C96.5043 6.76644 96.0169 6.85971 95.6082 7.04626C95.2152 7.2328 94.885 7.50414 94.6178 7.86026C94.3505 8.19944 94.154 8.59796 94.0282 9.05584C93.9025 9.51372 93.8396 10.0225 93.8396 10.5821V17.2214H90.774Z" fill="#F3EAFF"/>
<path d="M104.413 17.5266C103.564 17.5266 102.888 17.374 102.385 17.0687C101.882 16.7635 101.521 16.3226 101.301 15.746C101.08 15.1694 100.97 14.4741 100.97 13.6601V6.46119H99.0367V3.81566H101.065L101.654 0H104.036V3.81566H106.795V6.46119H104.036V13.3803C104.036 13.8721 104.13 14.2451 104.319 14.4995C104.523 14.7539 104.893 14.8811 105.427 14.8811H106.795V17.0942C106.606 17.179 106.371 17.2468 106.088 17.2977C105.805 17.3655 105.514 17.4164 105.215 17.4503C104.916 17.5012 104.649 17.5266 104.413 17.5266Z" fill="#F3EAFF"/>
<path d="M115.516 17.5266C114.054 17.5266 112.812 17.2807 111.79 16.7889C110.784 16.2802 110.014 15.5085 109.479 14.4741C108.945 13.4396 108.678 12.1253 108.678 10.5312C108.678 8.93713 108.937 7.62285 109.456 6.58838C109.99 5.55391 110.761 4.7823 111.767 4.27354C112.789 3.76479 114.023 3.51041 115.469 3.51041C116.884 3.51041 118.071 3.76479 119.03 4.27354C120.005 4.76534 120.736 5.51151 121.223 6.51206C121.71 7.51262 121.954 8.76754 121.954 10.2769V11.3452H111.861C111.893 12.1762 112.05 12.863 112.333 13.4057C112.632 13.9314 113.048 14.3215 113.583 14.5758C114.133 14.8132 114.801 14.932 115.587 14.932C115.933 14.932 116.295 14.8896 116.672 14.8048C117.049 14.703 117.395 14.5589 117.709 14.3723C118.024 14.1858 118.283 13.9399 118.488 13.6346C118.708 13.3294 118.826 12.9733 118.841 12.5662H121.907C121.907 13.3294 121.758 14.0162 121.459 14.6267C121.16 15.2372 120.728 15.7629 120.162 16.2038C119.612 16.6278 118.944 16.9585 118.157 17.1959C117.371 17.4164 116.491 17.5266 115.516 17.5266ZM111.885 9.08128H118.747C118.747 8.55556 118.661 8.10616 118.488 7.73308C118.33 7.35999 118.102 7.05474 117.804 6.81732C117.505 6.56294 117.159 6.38488 116.766 6.28312C116.373 6.16442 115.949 6.10506 115.493 6.10506C114.785 6.10506 114.172 6.21529 113.653 6.43575C113.135 6.65621 112.726 6.9869 112.427 7.42782C112.144 7.86874 111.963 8.4199 111.885 9.08128Z" fill="#F3EAFF"/>
<path d="M128.564 17.5266C128.03 17.5266 127.488 17.4673 126.937 17.3485C126.403 17.2468 125.908 17.0603 125.452 16.7889C125.012 16.5006 124.658 16.1106 124.391 15.6188C124.123 15.11 123.99 14.4571 123.99 13.6601C123.99 12.6595 124.218 11.8625 124.674 11.2689C125.145 10.6584 125.798 10.2005 126.631 9.89529C127.48 9.57307 128.478 9.36109 129.626 9.25934C130.773 9.15759 132.023 9.10672 133.375 9.10672V8.26727C133.375 7.79243 133.281 7.39391 133.092 7.07169C132.919 6.74948 132.62 6.51206 132.196 6.35944C131.787 6.18985 131.213 6.10506 130.475 6.10506C129.83 6.10506 129.288 6.17289 128.847 6.30856C128.423 6.42727 128.101 6.59686 127.881 6.81732C127.676 7.02082 127.574 7.25824 127.574 7.52957V7.86026H124.556C124.54 7.77547 124.532 7.69916 124.532 7.63133C124.532 7.54653 124.532 7.45326 124.532 7.35151C124.532 6.57142 124.768 5.89308 125.239 5.31649C125.727 4.7399 126.419 4.29898 127.315 3.99373C128.226 3.67152 129.319 3.51041 130.592 3.51041C131.897 3.51041 132.982 3.67152 133.847 3.99373C134.711 4.29898 135.356 4.77382 135.78 5.41824C136.221 6.06266 136.441 6.89363 136.441 7.91114V13.9399C136.441 14.2621 136.511 14.4995 136.653 14.6521C136.81 14.8048 137.015 14.8811 137.266 14.8811H138.233V17.0942C138.076 17.162 137.816 17.2468 137.455 17.3485C137.109 17.4503 136.7 17.5012 136.228 17.5012C135.678 17.5012 135.222 17.4164 134.861 17.2468C134.515 17.0942 134.24 16.8737 134.035 16.5854C133.847 16.2802 133.713 15.9325 133.635 15.5425H133.469C133.124 15.9495 132.699 16.3056 132.196 16.6109C131.709 16.8991 131.158 17.1196 130.545 17.2722C129.948 17.4418 129.288 17.5266 128.564 17.5266ZM129.413 14.8811C129.901 14.8811 130.38 14.8133 130.852 14.6776C131.324 14.5419 131.748 14.3554 132.125 14.118C132.503 13.8636 132.801 13.5498 133.021 13.1768C133.257 12.8037 133.375 12.3882 133.375 11.9303V11.2944C132.07 11.2944 130.946 11.3537 130.003 11.4724C129.06 11.5911 128.337 11.8116 127.833 12.1338C127.33 12.4391 127.079 12.88 127.079 13.4566C127.079 13.7957 127.181 14.0756 127.385 14.296C127.59 14.4995 127.865 14.6521 128.211 14.7539C128.572 14.8387 128.973 14.8811 129.413 14.8811Z" fill="#F3EAFF"/>
<path d="M139.918 17.2214V3.81566H142.441L142.677 5.85068H142.865C143.211 5.32497 143.612 4.89253 144.068 4.55336C144.524 4.19723 145.019 3.93437 145.553 3.76479C146.104 3.5952 146.662 3.51041 147.228 3.51041C148.171 3.51041 148.973 3.69695 149.633 4.07004C150.309 4.44313 150.812 5.03667 151.142 5.85068H151.331C151.693 5.32497 152.109 4.89253 152.581 4.55336C153.052 4.19723 153.563 3.93437 154.114 3.76479C154.664 3.5952 155.23 3.51041 155.811 3.51041C156.739 3.51041 157.525 3.67999 158.17 4.01916C158.83 4.35834 159.333 4.89253 159.679 5.62174C160.04 6.35096 160.221 7.30063 160.221 8.47077V17.2214H157.156V9.10672C157.156 8.581 157.093 8.14008 156.967 7.78395C156.857 7.42782 156.692 7.14801 156.472 6.94451C156.267 6.741 156.016 6.59686 155.717 6.51206C155.418 6.41031 155.088 6.35944 154.727 6.35944C154.161 6.35944 153.642 6.50359 153.17 6.79188C152.699 7.08017 152.321 7.4787 152.038 7.98745C151.755 8.49621 151.614 9.08976 151.614 9.7681V17.2214H148.548V9.10672C148.548 8.581 148.485 8.14008 148.36 7.78395C148.25 7.42782 148.085 7.14801 147.864 6.94451C147.66 6.741 147.409 6.59686 147.11 6.51206C146.811 6.41031 146.473 6.35944 146.096 6.35944C145.546 6.35944 145.027 6.50359 144.539 6.79188C144.068 7.08017 143.691 7.4787 143.408 7.98745C143.125 8.49621 142.983 9.08976 142.983 9.7681V17.2214H139.918Z" fill="#F3EAFF"/>
</svg>
