<svg width="81" height="20" viewBox="0 0 81 20" fill="none" xmlns="http://www.w3.org/2000/svg">
<path d="M38.5889 5.99161C38.6689 5.55302 38.7487 5.1147 38.8286 4.67666C38.869 4.45171 38.8792 4.44204 39.1279 4.44204C40.0167 4.44204 40.9054 4.44204 41.7939 4.44204C41.9954 4.44204 42.0183 4.46247 42.0183 4.63974C42.0183 9.495 42.0183 14.35 42.0183 19.2047C42.0183 19.3726 41.9923 19.3956 41.8011 19.3956H38.4059C38.1936 19.3956 38.1645 19.3703 38.1645 19.1806V14.0661L38.1195 14.0417C38.1096 14.0656 38.0969 14.0888 38.0819 14.1107C37.3639 14.9611 36.3919 15.4272 35.2273 15.5767C34.2428 15.7032 33.2743 15.6294 32.3446 15.2954C31.1477 14.8671 30.354 14.077 29.8585 13.0285C29.5381 12.3505 29.3739 11.6389 29.3101 10.9079C29.2105 9.76505 29.2684 8.63254 29.6242 7.5251C29.9609 6.4802 30.5482 5.58204 31.5629 4.94439C32.2099 4.53768 32.9352 4.30661 33.7141 4.21573C34.7069 4.10046 35.6887 4.13548 36.631 4.47501C37.3855 4.74206 38.0232 5.2207 38.4484 5.83928C38.4844 5.89119 38.5212 5.94256 38.5576 5.99406L38.5889 5.99161ZM38.2115 9.90089L38.2565 9.89558C38.1891 9.45685 38.1438 9.01391 38.0483 8.57995C37.9551 8.11684 37.7116 7.6886 37.3482 7.34866C36.828 6.87001 36.1747 6.717 35.4504 6.72218C34.3733 6.73022 33.6302 7.18952 33.2663 8.09939C33.0092 8.74236 32.9701 9.41135 32.9845 10.085C32.9971 10.6564 33.0667 11.2202 33.3062 11.7574C33.5122 12.2184 33.829 12.5958 34.3357 12.8199C35.7901 13.4629 37.4635 12.8288 37.9638 11.4509C38.1465 10.9465 38.2129 10.4285 38.2115 9.90089Z" fill="#F3EAFF"/>
<path d="M80.3393 4.45183C80.1247 4.67719 79.9322 4.87979 79.7392 5.08185C78.471 6.40906 77.2028 7.73655 75.9343 9.0643C75.7547 9.25042 75.7547 9.31664 75.9114 9.52156L80.2252 15.101C80.2751 15.1657 80.324 15.2308 80.3872 15.3135C80.315 15.3172 80.2683 15.3212 80.2213 15.3212C78.9903 15.3212 77.759 15.3185 76.5275 15.324C76.2583 15.324 76.0685 15.2336 75.9177 15.0346C75.0588 13.9023 74.1964 12.7718 73.3306 11.6434C73.3032 11.6073 73.2727 11.5731 73.2351 11.5277C73.1983 11.5582 73.165 11.5823 73.1367 11.6081C72.705 12.0316 72.2756 12.4568 71.8416 12.8783C71.8073 12.9094 71.7803 12.9465 71.7625 12.9873C71.7446 13.0281 71.7363 13.0717 71.7379 13.1154C71.7424 13.7821 71.7407 14.4492 71.7379 15.1158C71.7379 15.2943 71.7106 15.3195 71.5168 15.3195C70.3949 15.3195 69.273 15.3195 68.1512 15.3195C67.9532 15.3195 67.9268 15.2966 67.9268 15.1187C67.9268 10.1482 67.9268 5.1775 67.9268 0.206555C67.9268 0.0208461 67.9501 0 68.1578 0H71.5235C71.7375 0 71.7559 0.0152599 71.7542 0.203694C71.7404 1.85722 71.7254 3.51089 71.7093 5.16469C71.6976 6.44013 71.6851 7.71584 71.6716 8.99155C71.6716 9.11213 71.6716 9.23502 71.6716 9.38694C71.7227 9.3368 71.7528 9.31024 71.7792 9.28094C73.174 7.74118 74.5681 6.20074 75.9617 4.65948C76.0891 4.51887 76.2439 4.43889 76.4467 4.43889C77.7077 4.43889 78.9687 4.43889 80.2297 4.43889C80.2567 4.44339 80.2804 4.44693 80.3393 4.45183Z" fill="#F3EAFF"/>
<path d="M18.452 6.37873C18.6504 6.13757 18.8183 5.90649 19.0165 5.69871C19.9625 4.70817 21.1899 4.23756 22.6236 4.16808C23.2391 4.13129 23.8572 4.18047 24.4559 4.31359C25.913 4.65067 26.8198 5.49065 27.234 6.77454C27.3949 7.27975 27.4756 7.80282 27.4737 8.3282C27.4772 10.5871 27.4772 12.8461 27.4737 15.105C27.4737 15.308 27.4594 15.3208 27.2246 15.3208H23.859C23.6347 15.3208 23.6158 15.302 23.6163 15.0963C23.6163 13.2421 23.6163 11.3877 23.6163 9.53333C23.6163 9.11899 23.5686 8.70752 23.4291 8.30926C23.2102 7.6836 22.756 7.29896 22.0182 7.1965C21.4475 7.11612 20.887 7.14309 20.3525 7.35047C19.5861 7.64776 19.1556 8.20271 18.9613 8.9044C18.8658 9.24475 18.8147 9.59396 18.8093 9.9448C18.794 11.6568 18.8021 13.369 18.8021 15.0809C18.8021 15.3105 18.7904 15.322 18.5328 15.322H15.1807C14.9621 15.322 14.9365 15.3008 14.9365 15.1111C14.9365 11.6283 14.9365 8.14658 14.9365 4.66593C14.9365 4.46864 14.9662 4.44262 15.1848 4.44262C16.0936 4.44262 17.0023 4.44262 17.9109 4.44262C18.1253 4.44262 18.1443 4.45788 18.1752 4.64877C18.265 5.21856 18.3569 5.79 18.452 6.37873Z" fill="#F3EAFF"/>
<path d="M8.97029 13.5206C8.81319 13.7183 8.68171 13.9007 8.53102 14.0691C7.89732 14.7756 7.08378 15.2346 6.10768 15.4636C5.01509 15.7222 3.86242 15.6943 2.787 15.3832C1.46905 15.0095 0.641875 14.1934 0.246613 13.0167C0.0792983 12.5037 -0.00313375 11.9717 0.00204375 11.4374C-0.00068125 9.17895 -0.00068125 6.92047 0.00204375 4.66199C0.00204375 4.46116 0.0239811 4.44141 0.249747 4.44141H3.60054C3.8447 4.44141 3.8586 4.45421 3.8586 4.67848C3.8586 6.56731 3.85179 8.45601 3.86487 10.3472C3.86283 10.7243 3.90792 11.1005 3.99948 11.4688C4.23151 12.3472 4.89165 12.792 5.8999 12.8044C7.20408 12.8201 8.12214 12.1824 8.43538 11.0122C8.52489 10.6796 8.57203 10.3391 8.57585 9.99714C8.58975 8.21894 8.58211 6.4406 8.58252 4.6624C8.58252 4.46157 8.60501 4.44181 8.83077 4.44181H12.1515C12.3956 4.44181 12.4207 4.46157 12.4207 4.67371C12.4207 8.15885 12.4207 11.6443 12.4207 15.1301C12.4207 15.2907 12.387 15.3214 12.1996 15.3214C11.2863 15.3214 10.3727 15.3214 9.45902 15.3214C9.3176 15.3214 9.25574 15.2779 9.2368 15.1493C9.16377 14.6514 9.08065 14.1551 9.00081 13.658C8.99495 13.6219 8.98378 13.5832 8.97029 13.5206Z" fill="#F3EAFF"/>
<path d="M50.2081 4.16026C51.1859 4.1623 52.1507 4.24991 53.0801 4.53317C54.6508 5.01059 55.6954 5.96257 56.1563 7.38639C56.6858 9.01989 56.6997 10.6723 56.1491 12.3039C55.624 13.8591 54.455 14.8758 52.7116 15.3202C50.9467 15.7711 49.1664 15.7624 47.4114 15.28C45.6918 14.8083 44.5937 13.7531 44.1126 12.213C43.6501 10.7544 43.6345 9.21118 44.0678 7.74527C44.5963 5.93682 45.9175 4.83252 47.9334 4.38126C48.681 4.21367 49.4407 4.1574 50.2081 4.16026ZM47.4168 9.87704C47.4168 10.4208 47.4572 10.9621 47.6201 11.4882C47.8894 12.3577 48.4875 12.9195 49.5107 13.0413C49.8892 13.0867 50.2724 13.092 50.6524 13.0574C51.7181 12.9578 52.3638 12.4486 52.6565 11.5227C52.7959 11.0586 52.867 10.5802 52.8678 10.0997C52.8799 9.42619 52.8484 8.75624 52.6035 8.11096C52.3248 7.37794 51.7657 6.92028 50.905 6.80365C50.5273 6.75323 50.1448 6.73838 49.7637 6.7595C48.5687 6.82613 47.8669 7.36949 47.5855 8.40703C47.4527 8.89127 47.4204 9.38286 47.4168 9.87704Z" fill="#F3EAFF"/>
<path d="M62.0001 6.55348C62.247 6.15972 62.5076 5.79402 62.8388 5.47138C63.7314 4.6017 64.8443 4.17728 66.1595 4.16406C66.3256 4.16406 66.3552 4.19227 66.3565 4.3465C66.3643 5.2933 66.3714 6.2401 66.3777 7.1869C66.3777 7.42793 66.3638 7.43515 66.1004 7.42793C65.4379 7.40995 64.7918 7.4778 64.1865 7.73981C63.3163 8.11558 62.8245 8.76209 62.562 9.56992C62.4163 10.028 62.3441 10.5024 62.3474 10.9787C62.3474 12.3167 62.3474 13.6547 62.3474 14.9929C62.3474 15.0508 62.3474 15.1086 62.3474 15.1665C62.3474 15.2766 62.2887 15.3273 62.1626 15.324C61.8745 15.3201 61.5868 15.324 61.2987 15.324H58.722C58.5084 15.324 58.4863 15.3056 58.4863 15.1232C58.4863 11.6376 58.4863 8.15224 58.4863 4.66682C58.4863 4.46586 58.5084 4.44583 58.7342 4.44583H61.4593C61.668 4.44583 61.6874 4.45823 61.7146 4.64271C61.8027 5.23213 61.8896 5.82236 61.9754 6.41369C61.9809 6.45906 61.992 6.50606 62.0001 6.55348Z" fill="#F3EAFF"/>
</svg>
