<svg width="55" height="18" viewBox="0 0 55 18" fill="none" xmlns="http://www.w3.org/2000/svg">
<mask id="mask0_8917_21384" style="mask-type:luminance" maskUnits="userSpaceOnUse" x="0" y="0" width="55" height="18">
<path d="M54.5 0H0V17.4098H54.5V0Z" fill="white"/>
</mask>
<g mask="url(#mask0_8917_21384)">
<path d="M23.6171 17.1579H19.2021L21.9635 0.304688H26.3782L23.6171 17.1579Z" fill="#F3EAFF"/>
<path d="M39.6213 0.717492C38.7505 0.376459 37.3694 0 35.6616 0C31.3017 0 28.2315 2.29472 28.2127 5.57549C28.1764 7.9961 30.4108 9.34062 32.082 10.1476C33.7901 10.9723 34.3706 11.5107 34.3706 12.2459C34.3533 13.3748 32.9904 13.8953 31.7193 13.8953C29.9568 13.8953 29.0123 13.627 27.5771 12.9988L26.9957 12.7296L26.3779 16.5127C27.4134 16.9784 29.3211 17.3916 31.3017 17.4096C35.9341 17.4096 38.95 15.1505 38.9857 11.6541C39.0033 9.73561 37.8235 8.26561 35.2798 7.06443C33.7357 6.29325 32.7901 5.77332 32.7901 4.9843C32.8081 4.26708 33.5899 3.53242 35.333 3.53242C36.7682 3.49645 37.8228 3.83694 38.6216 4.1777L39.021 4.35673L39.6213 0.717492Z" fill="#F3EAFF"/>
<path d="M45.4887 11.1874C45.8523 10.2192 47.2514 6.47204 47.2514 6.47204C47.233 6.50801 47.6142 5.486 47.8322 4.85857L48.1408 6.31072C48.1408 6.31072 48.9768 10.3448 49.1583 11.1874C48.4683 11.1874 46.3607 11.1874 45.4887 11.1874ZM50.9383 0.304688H47.5234C46.4704 0.304688 45.6703 0.609343 45.2159 1.70302L38.6582 17.1576H43.2906C43.2906 17.1576 44.0533 15.0775 44.2172 14.6295C44.7254 14.6295 49.2317 14.6295 49.8855 14.6295C50.0122 15.2212 50.4122 17.1576 50.4122 17.1576H54.5L50.9383 0.304688Z" fill="#F3EAFF"/>
<path d="M15.5141 0.304688L11.1905 11.797L10.7181 9.46614C9.91874 6.77683 7.41174 3.85482 4.61426 2.40198L8.5745 17.14H13.2431L20.1826 0.304688H15.5141Z" fill="#F3EAFF"/>
<path d="M7.17574 0.304688H0.0726198L0 0.645313C5.54088 2.04378 9.2105 5.41488 10.7181 9.46696L9.17398 1.72142C8.91988 0.645041 8.13862 0.340249 7.17574 0.304688Z" fill="#F3EAFF"/>
</g>
</svg>
