<svg width="54" height="18" viewBox="0 0 54 18" fill="none" xmlns="http://www.w3.org/2000/svg">
<mask id="mask0_8917_21442" style="mask-type:luminance" maskUnits="userSpaceOnUse" x="0" y="0" width="54" height="18">
<path d="M53.6344 0H0V17.163H53.6344V0Z" fill="white"/>
</mask>
<g mask="url(#mask0_8917_21442)">
<path d="M5.1756 1.17188L8.64647 12.3156H8.77724L12.2334 1.17188H17.409L11.8367 16.9757H5.57021L0 1.17188H5.1756Z" fill="#F3EAFF"/>
<path d="M19.0996 16.9752V5.1222H23.6486V16.9752H19.0996ZM21.3741 3.88756C20.7872 3.89845 20.219 3.69345 19.7916 3.31655C19.584 3.14464 19.4177 2.93324 19.3038 2.6965C19.1899 2.4599 19.1311 2.20327 19.1311 1.94364C19.1311 1.68402 19.1899 1.42739 19.3038 1.19079C19.4177 0.954046 19.584 0.742777 19.7916 0.570739C20.2253 0.203369 20.7892 0 21.3741 0C21.9589 0 22.5228 0.203369 22.9565 0.570739C23.1636 0.74305 23.3293 0.954454 23.4428 1.19119C23.5563 1.4278 23.6148 1.68429 23.6148 1.94364C23.6148 2.20299 23.5563 2.45949 23.4428 2.69609C23.3293 2.93283 23.1636 3.14424 22.9565 3.31655C22.5299 3.69454 21.9612 3.89968 21.3741 3.88756Z" fill="#F3EAFF"/>
<path d="M33.0859 13.7825C32.9987 13.8049 32.858 13.8305 32.6639 13.8596C32.5068 13.8888 32.3472 13.9048 32.1871 13.907C32.0207 13.9123 31.8549 13.8861 31.6998 13.8299C31.5802 13.7781 31.4817 13.6915 31.419 13.583C31.3556 13.4523 31.3246 13.3098 31.3283 13.1662V8.2117H33.5058V5.124H31.3389V2.28516H26.792V5.124H25.1758V8.2117H26.792V13.5672C26.7538 14.2886 26.9338 15.0055 27.3111 15.6355C27.6827 16.1969 28.2465 16.6236 28.9104 16.8465C29.7552 17.1155 30.6502 17.2176 31.5393 17.1468C31.9888 17.1298 32.4357 17.0756 32.8749 16.9847C33.2548 16.9045 33.5459 16.8353 33.7484 16.7774L33.0859 13.7825Z" fill="#F3EAFF"/>
<path d="M38.8983 17.162C38.1651 17.1756 37.4366 17.0499 36.7568 16.7926C36.162 16.556 35.6565 16.1584 35.3051 15.6509C34.9311 15.0641 34.7477 14.3879 34.7776 13.705C34.7607 13.1339 34.8818 12.5666 35.1321 12.0455C35.3566 11.5967 35.6966 11.2071 36.1216 10.9117C36.5675 10.6077 37.0677 10.3803 37.5985 10.24C38.1954 10.0804 38.8085 9.97972 39.4279 9.93967C40.1312 9.88832 40.7001 9.82648 41.1348 9.75401C41.4684 9.71288 41.7886 9.60513 42.0737 9.43799C42.1654 9.37534 42.2396 9.29279 42.2899 9.19758C42.3402 9.10223 42.3652 8.99707 42.3628 8.89069V8.85908C42.3697 8.72028 42.3385 8.58216 42.2719 8.45807C42.2055 8.33384 42.106 8.22773 41.983 8.14995C41.6941 7.97492 41.3541 7.88856 41.0103 7.903C40.6376 7.88937 40.2694 7.98322 39.9553 8.17161C39.8175 8.26696 39.7028 8.3886 39.6192 8.52863C39.5355 8.66866 39.4847 8.82367 39.4701 8.98358H35.2734C35.3246 8.27077 35.5773 7.58357 36.0055 6.99227C36.4888 6.34716 37.1534 5.83976 37.9256 5.52646C38.7696 5.15514 39.8197 4.96948 41.0757 4.96948C41.9001 4.959 42.7217 5.06088 43.5147 5.27161C44.1758 5.44051 44.7984 5.7203 45.3525 6.09748C45.8332 6.42071 46.2281 6.84311 46.5067 7.33212C46.7756 7.80152 46.9141 8.32648 46.9096 8.85908V16.9764H42.6582V15.311H42.5591C42.3319 15.7236 42.0173 16.0885 41.6349 16.3837C41.2735 16.6584 40.8554 16.8602 40.4069 16.9764C39.916 17.105 39.408 17.1675 38.8983 17.162ZM40.3753 14.4774C40.7112 14.4808 41.0437 14.4132 41.3479 14.2799C41.6489 14.1529 41.9081 13.9531 42.0991 13.7011C42.2974 13.4315 42.3987 13.1096 42.3881 12.7825V11.7948C42.2658 11.8422 42.1371 11.8856 41.9999 11.927C41.8627 11.9686 41.7256 12.006 41.5779 12.0416C41.4303 12.0771 41.2698 12.1127 41.099 12.1424C40.928 12.1721 40.7613 12.2016 40.5799 12.2274C40.2777 12.2638 39.9849 12.35 39.7148 12.4821C39.5125 12.5796 39.342 12.7263 39.2211 12.907C39.1146 13.0748 39.0599 13.2668 39.0628 13.462C39.0543 13.607 39.0836 13.7516 39.1483 13.8835C39.2131 14.0153 39.3112 14.1303 39.4342 14.2186C39.7106 14.4011 40.0439 14.4921 40.3815 14.4774H40.3753Z" fill="#F3EAFF"/>
<path d="M53.6341 1.17188V16.9757H49.083V1.17188H53.6341Z" fill="#F3EAFF"/>
</g>
</svg>
