<svg xmlns="http://www.w3.org/2000/svg" viewBox="0 0 1389.46 204.15"><defs><style>.cls-1{fill:#f15a24;}.cls-2{fill:#fff;}</style></defs><g id="Layer_2" data-name="Layer 2"><g id="Layer_1-2" data-name="Layer 1"><path class="cls-1" d="M201.92,81a101.91,101.91,0,0,1,.5,39.91A45.25,45.25,0,0,1,161.87,92c-.14-.82-.3-1.65-.47-2.47a61.81,61.81,0,0,0-2.15-7.66A60.61,60.61,0,1,0,140,149.4a45.22,45.22,0,0,1,30.84,28.1,102.06,102.06,0,1,1-1.12-151.84,102.69,102.69,0,0,1,11,11.3A101.6,101.6,0,0,1,201.92,81Z"/><path class="cls-1" d="M241.58,158.85a29,29,0,0,1-54.77,17.91,28,28,0,0,1-1.86-5.61,60.67,60.67,0,0,0-57.14-38.7l-1,.25a28,28,0,1,1,21.63-33.24c.06.3.11.6.17.9a60.12,60.12,0,0,0,12,17.83l.11.12a60.76,60.76,0,0,0,37.56,18l.17,0a61.22,61.22,0,0,0,15.24-.5A29,29,0,0,1,241.58,158.85Z"/><path class="cls-2" d="M281.09,121.61v-7.24c0-27.07,22.49-46.14,54.9-46.33,32.41.19,55.09,19.07,55.09,46.33v7.24c0,28.79-21.35,47.09-55.09,47.09S281.09,150.4,281.09,121.61Zm74.16,4.19V110.74c0-11-6.87-20.58-18.88-20.58-12.77,0-19.44,9.34-19.44,20.58V125.8c0,10.68,6.67,20.78,19.06,20.78S355.25,136.48,355.25,125.8Z"/><path class="cls-2" d="M392.23,204.15V70.71h35.65v2.48a26.07,26.07,0,0,1-2.67,9.72l-1.53,2.86.57.38,3.63-4.76c5.33-8.2,17.34-13.35,28.4-13.35,27.64,0,44.8,17.16,44.8,47.28v7.05c0,27.45-17.16,46.33-44.8,46.33-10.68,0-21.73-4-27.26-12.2h-1.14v47.65Zm73.39-81.59v-8.38c0-14.68-7.82-24-18.68-24-11.25,0-18.87,9.15-18.87,23.44v9.73c0,14.48,7.81,23.44,19.44,23.44C458.38,146.77,465.62,137.81,465.62,122.56Z"/><path class="cls-2" d="M502.46,121.61v-7.24c0-27.07,22.49-46.14,54.9-46.33,32.41.19,55.09,19.07,55.09,46.33V125H538.3v1.72c0,10.67,6.67,19.82,19.06,19.82,9,0,15.06-4.76,18.11-13.91h35.65c-4.58,22.68-24.78,36-53.76,36C523.62,168.7,502.46,150.4,502.46,121.61ZM576,106.55c-1.52-10.1-8-16.39-18.3-16.39-10.1,0-17.16,5.91-19.06,16.39Z"/><path class="cls-2" d="M614.41,166V70.71h35.64v1.34c-.19,2.86-1.33,5.52-3.81,9.15l-1,1.71.57.57,4.19-4.19A38.78,38.78,0,0,1,677.89,68c27.45-.19,41.94,15.25,41.94,44.61V166H684.18V110.74c0-13.34-5-20.58-16.4-20.58-11.82,0-17.73,8.19-17.73,21.16V166Z"/><path class="cls-2" d="M852.89,177.47c-9.15-.2-22.88-5.72-32.41-11.82a92.1,92.1,0,0,1-24,3c-52.23,0-72.63-36.79-72.63-68.25V98.54c0-31.26,20.4-68.62,72.63-68.62,52.8,0,71.68,37.36,71.68,68.62v1.91c0,17.92-6.1,37.55-21.16,50.9,7.43,3.81,10.29,5,21.54,7.62Zm-19.64-77V98.54c0-18.68-9-43.08-36.79-43.08-28.6.19-37,24.4-37,43.08v1.91c0,18.87,8.38,42.51,37,42.7C824.29,143.15,833.25,119.32,833.25,100.45Z"/><path class="cls-2" d="M875,124.09V70.71h35.46V126c0,13.34,4.95,20.58,14.1,20.58,11.63,0,20.21-8.19,20.21-21.16V70.71h35.46V166H944.77v-2.1a19,19,0,0,1,3.62-8.58l.77-1.52-.39-.57-4,4.19c-6.48,6.67-16.39,11.25-28,11.25C889.3,168.89,875,153.45,875,124.09Z"/><path class="cls-2" d="M984.42,140.86c0-19.63,17.16-27.07,40.23-30.88l22.3-3.43c3-.38,4.57-1.71,4.57-3.62v-.76c0-4.58-5.91-8.58-13.91-8.58-9,0-13.92,4.19-15.44,9H987.28C988,83.87,1008.44,68,1038.94,68c29.74,0,50,12.58,50,33.75V166h-32.41v-2.86c0-3.24,1-6.1,2.48-9.53l1.71-3.24-.38-.19-3.81,5.14c-7.24,9.72-23.07,13.35-35.84,13.35C998.91,168.7,984.42,157.07,984.42,140.86Zm67.29-8.19v-7.82l-20.2,3.62c-7.82,1.53-11.63,4.2-11.63,9.53,0,5,5.34,8.2,12.77,8.2C1043,146.2,1051.71,140.86,1051.71,132.67Z"/><path class="cls-2" d="M1097.47,166V70.71h35.65v1.34c-.19,2.86-1.34,5.52-3.82,9.15l-1,1.71.57.57,4.2-4.19A38.76,38.76,0,0,1,1161,68c27.45-.19,41.94,15.25,41.94,44.61V166h-35.65V110.74c0-13.34-5-20.58-16.39-20.58-11.82,0-17.73,8.19-17.73,21.16V166Z"/><path class="cls-2" d="M1281.81,167.17c-22.5,3.43-40,1.72-49-4.57-8.38-5.53-11.62-12.58-11.62-23.64V96.26h-16.78V70.71h10.87c4.38,0,6.86-2.29,6.86-6.1v-13l35.27-7v16c0,5.91-3.63,8.39-6.87,9.53v.38l31.08.19V96.26h-24.21V132.1c0,11.81,8,13.15,24.4,11.43Z"/><path class="cls-2" d="M1285,140.86c0-19.63,17.15-27.07,40.22-30.88l22.3-3.43c3-.38,4.58-1.71,4.58-3.62v-.76c0-4.58-5.91-8.58-13.92-8.58-9,0-13.91,4.19-15.44,9h-34.88C1288.62,83.87,1309,68,1339.52,68c29.74,0,49.94,12.58,49.94,33.75V166h-32.4v-2.86c0-3.24,1-6.1,2.47-9.53l1.72-3.24-.38-.19-3.81,5.14c-7.25,9.72-23.07,13.35-35.84,13.35C1299.48,168.7,1285,157.07,1285,140.86Zm67.29-8.19v-7.82l-20.21,3.62c-7.81,1.53-11.63,4.2-11.63,9.53,0,5,5.34,8.2,12.78,8.2C1343.52,146.2,1352.29,140.86,1352.29,132.67Z"/></g></g></svg>